<svg width="23" height="20" viewBox="0 0 23 20" fill="none" xmlns="http://www.w3.org/2000/svg">
<path d="M0.226562 18V8L7.22656 3L14.2266 8V8.675C13.8432 8.85833 13.4849 9.07083 13.1516 9.3125C12.8182 9.55417 12.5099 9.825 12.2266 10.125V9L7.22656 5.45L2.22656 9V16H4.22656V11H10.2266V16H10.3016C10.3516 16.35 10.4266 16.6917 10.5266 17.025C10.6266 17.3583 10.7516 17.6833 10.9016 18H8.22656V13H6.22656V18H0.226562ZM22.2266 0V10.125C21.9432 9.825 21.6349 9.55417 21.3016 9.3125C20.9682 9.07083 20.6099 8.85833 20.2266 8.675V2H11.2266V3.4L9.22656 1.95V0H22.2266ZM16.2266 6H18.2266V4H16.2266V6ZM17.2266 20C15.8432 20 14.6641 19.5125 13.6891 18.5375C12.7141 17.5625 12.2266 16.3833 12.2266 15C12.2266 13.6167 12.7141 12.4375 13.6891 11.4625C14.6641 10.4875 15.8432 10 17.2266 10C18.6099 10 19.7891 10.4875 20.7641 11.4625C21.7391 12.4375 22.2266 13.6167 22.2266 15C22.2266 16.3833 21.7391 17.5625 20.7641 18.5375C19.7891 19.5125 18.6099 20 17.2266 20ZM16.7266 18H17.7266V15.5H20.2266V14.5H17.7266V12H16.7266V14.5H14.2266V15.5H16.7266V18Z" fill="#1C1B1F"/>
</svg>
