<svg width="17" height="20" viewBox="0 0 17 20" fill="none" xmlns="http://www.w3.org/2000/svg">
<path d="M14.6667 10.4166V5.66663C14.6667 4.26649 14.6667 3.56643 14.3942 3.03165C14.1545 2.56124 13.7721 2.17879 13.3016 1.93911C12.7669 1.66663 12.0668 1.66663 10.6667 1.66663H5.33334C3.9332 1.66663 3.23314 1.66663 2.69836 1.93911C2.22795 2.17879 1.8455 2.56124 1.60582 3.03165C1.33334 3.56643 1.33334 4.26649 1.33334 5.66663V14.3333C1.33334 15.7334 1.33334 16.4335 1.60582 16.9683C1.8455 17.4387 2.22795 17.8211 2.69836 18.0608C3.23314 18.3333 3.9332 18.3333 5.33334 18.3333H8M9.66667 9.16662H4.66667M6.33334 12.5H4.66667M11.3333 5.83329H4.66667M10.0833 15.8333L11.75 17.5L15.5 13.75" stroke="white" stroke-width="1.66667" stroke-linecap="round" stroke-linejoin="round"/>
</svg>
