<svg width="17" height="20" viewBox="0 0 17 20" fill="none" xmlns="http://www.w3.org/2000/svg">
<path d="M14.6668 10.4166V5.66663C14.6668 4.26649 14.6668 3.56643 14.3943 3.03165C14.1547 2.56124 13.7722 2.17879 13.3018 1.93911C12.767 1.66663 12.067 1.66663 10.6668 1.66663H5.3335C3.93336 1.66663 3.2333 1.66663 2.69852 1.93911C2.22811 2.17879 1.84566 2.56124 1.60598 3.03165C1.3335 3.56643 1.3335 4.26649 1.3335 5.66663V14.3333C1.3335 15.7334 1.3335 16.4335 1.60598 16.9683C1.84566 17.4387 2.22811 17.8211 2.69852 18.0608C3.2333 18.3333 3.93336 18.3333 5.3335 18.3333H8.00016M9.66683 9.16662H4.66683M6.3335 12.5H4.66683M11.3335 5.83329H4.66683M10.0835 15.8333L11.7502 17.5L15.5002 13.75" stroke="#344054" stroke-width="1.66667" stroke-linecap="round" stroke-linejoin="round"/>
</svg>
