<svg width="18" height="20" viewBox="0 0 18 20" fill="none" xmlns="http://www.w3.org/2000/svg">
<path d="M16.5 8.33329H1.5M16.5 10.4166V7.33329C16.5 5.93316 16.5 5.2331 16.2275 4.69832C15.9878 4.22791 15.6054 3.84546 15.135 3.60578C14.6002 3.33329 13.9001 3.33329 12.5 3.33329H5.5C4.09987 3.33329 3.3998 3.33329 2.86502 3.60578C2.39462 3.84546 2.01217 4.22791 1.77248 4.69832C1.5 5.2331 1.5 5.93316 1.5 7.33329V14.3333C1.5 15.7334 1.5 16.4335 1.77248 16.9683C2.01217 17.4387 2.39462 17.8211 2.86502 18.0608C3.3998 18.3333 4.09987 18.3333 5.5 18.3333H9M12.3333 1.66663V4.99996M5.66667 1.66663V4.99996M11.0833 15.8333L12.75 17.5L16.5 13.75" stroke="#5340FF" stroke-width="1.66667" stroke-linecap="round" stroke-linejoin="round"/>
</svg>
