<svg width="22" height="22" viewBox="0 0 22 22" fill="none" xmlns="http://www.w3.org/2000/svg">
<path d="M21.4523 17.15L19.4523 15.15V6.99998H11.3023L9.45234 5.14998V2.99998H7.30234L5.30234 0.999976H11.4523V4.99998H21.4523V17.15ZM19.9523 21.3L17.6023 19H1.45234V2.79998L0.152344 1.49998L1.55234 0.0999756L21.3523 19.9L19.9523 21.3ZM3.45234 17H5.45234V15H3.45234V17ZM3.45234 13H5.45234V11H3.45234V13ZM3.45234 8.99998H5.45234V6.99998H3.45234V8.99998ZM7.45234 17H9.45234V15H7.45234V17ZM7.45234 13H9.45234V11H7.45234V13ZM11.4523 17H15.6023L13.6023 15H11.4523V17ZM17.4523 11H15.4523V8.99998H17.4523V11Z" fill="#1C1B1F"/>
</svg>
