<svg width="385" height="304" viewBox="0 0 385 304" fill="none" xmlns="http://www.w3.org/2000/svg">
<path fill-rule="evenodd" clip-rule="evenodd" d="M188.462 272.837C189.218 273.54 189.324 274.525 188.761 275.844C187.917 277.797 181.901 281.666 168.006 279.802C154.11 277.92 153.759 273.769 153.635 272.608C153.547 271.834 154.726 270.075 157.171 267.331L182.394 266.487L188.462 272.837Z" fill="#312A46"/>
<path fill-rule="evenodd" clip-rule="evenodd" d="M381.659 212.082V300.379H258.535V212.082H381.659ZM374.975 287.539V295.982H365.301V287.539H374.975Z" fill="white"/>
<path d="M381.659 208.741C383.506 208.741 385.001 210.236 385.001 212.083V300.38C385.001 302.227 383.506 303.722 381.659 303.722H258.535C256.688 303.722 255.193 302.227 255.193 300.38V212.083C255.193 210.236 256.688 208.741 258.535 208.741H381.659ZM378.317 296.053C378.317 296.387 378.264 296.722 378.159 297.021L378.141 297.056H378.317V296V296.053ZM371.633 290.882H368.643V292.641H371.633V290.882ZM378.317 215.425H261.877V297.038H362.135L362.117 297.003C362.012 296.704 361.959 296.37 361.959 296.036V295.983V287.54C361.959 285.693 363.454 284.198 365.301 284.198H374.975C376.822 284.198 378.317 285.693 378.317 287.54V215.425Z" fill="white"/>
<path fill-rule="evenodd" clip-rule="evenodd" d="M225.647 64.6236C232.665 68.9856 238.417 73.0487 242.885 76.8304C247.352 80.612 253.667 86.1702 261.793 93.5048L289.197 59.5931L305.906 70.0762L280.947 113.292C276.093 121.7 265.328 124.585 256.921 119.73C256.375 119.413 255.83 119.062 255.32 118.675L226.914 97.8493L225.647 64.6236Z" fill="#7EE0EC"/>
<path fill-rule="evenodd" clip-rule="evenodd" d="M310.769 39.3656H291.069C289.996 39.3656 289.064 40.1044 288.835 41.1597L279.917 81.7729C279.724 82.6347 280.269 83.479 281.131 83.6549C281.237 83.6725 281.36 83.6901 281.465 83.6901H301.165C302.238 83.6901 303.17 82.9513 303.399 81.896L312.316 41.2828C312.51 40.421 311.965 39.5767 311.103 39.4008C310.997 39.3832 310.892 39.3656 310.769 39.3656Z" fill="#FFA971"/>
<path fill-rule="evenodd" clip-rule="evenodd" d="M314.814 39.3658H295.114C294.041 39.3658 293.109 40.1045 292.88 41.1599L283.962 81.773C283.769 82.6349 284.314 83.4792 285.176 83.6551C285.282 83.6726 285.405 83.6902 285.51 83.6902H305.21C306.283 83.6902 307.215 82.9515 307.444 81.8961L316.361 41.283C316.555 40.4211 316.01 39.5769 315.148 39.401C315.042 39.3834 314.937 39.3658 314.814 39.3658Z" fill="#FF893D"/>
<path fill-rule="evenodd" clip-rule="evenodd" d="M314.013 45.9241C316.328 46.6954 318.199 49.3907 315.743 54.999C323.51 56.4419 326.028 59.6799 323.27 64.6904C325.683 66.5768 325.409 68.873 322.488 71.5881C324.094 73.3952 323.269 75.2278 320.024 77.0973C318.347 78.0554 315.055 77.8191 309.086 77.0804C308.833 77.0525 312.843 45.5395 314.013 45.9241Z" fill="#7EE0EC"/>
<path fill-rule="evenodd" clip-rule="evenodd" d="M322.987 74.4628C322.79 76.0656 320.629 77.1911 316.505 77.864C310.313 78.8676 304.715 77.3848 304.716 74.5382C304.7 72.6419 307.614 71.1384 313.422 70.0186L322.987 74.4628Z" fill="#7EE0EC"/>
<path fill-rule="evenodd" clip-rule="evenodd" d="M324.631 68.5678C324.421 70.1593 322.273 71.2961 318.15 71.969C311.957 72.9726 306.359 71.4898 306.36 68.6432C306.344 66.7469 309.259 65.2434 315.066 64.1236L324.631 68.5678Z" fill="#7EE0EC"/>
<path fill-rule="evenodd" clip-rule="evenodd" d="M323.975 62.3422C323.778 63.945 321.617 65.0704 317.494 65.7433C311.301 66.747 305.703 65.2641 305.704 62.4175C305.688 60.5212 308.603 59.0177 314.41 57.8979L323.975 62.3422Z" fill="#7EE0EC"/>
<path d="M312.379 66.2735C311.588 66.2735 310.761 66.2383 309.917 66.168C309.776 66.1504 309.618 66.1504 309.583 66.1504C309.284 66.1504 309.055 65.9217 309.055 65.6227C309.055 65.3237 309.284 65.095 309.583 65.095C309.671 65.095 309.794 65.1126 310.005 65.1302C313.857 65.482 317.199 65.0071 319.907 63.7231C320.171 63.6 320.488 63.7055 320.611 63.9693C320.734 64.2332 320.629 64.5498 320.365 64.6729C318.078 65.7282 315.405 66.2735 312.379 66.2735Z" fill="#312A46"/>
<path d="M310.971 72.0797C310.18 72.0797 309.353 72.0445 308.509 71.9742C308.368 71.9566 308.21 71.9566 308.174 71.9566C307.875 71.9566 307.647 71.7279 307.647 71.4289C307.647 71.1299 307.875 70.9012 308.174 70.9012C308.262 70.9012 308.385 70.9188 308.597 70.9364C312.449 71.2882 315.79 70.8133 318.499 69.5293C318.763 69.4062 319.08 69.5117 319.203 69.7755C319.326 70.0394 319.22 70.356 318.956 70.4791C316.67 71.5344 313.996 72.0797 310.971 72.0797Z" fill="#312A46"/>
<path fill-rule="evenodd" clip-rule="evenodd" d="M230.535 269.797C231.15 270.606 231.08 271.609 230.306 272.805C229.145 274.582 222.549 277.361 209.182 273.086C195.814 268.83 196.201 264.679 196.289 263.5C196.342 262.726 197.802 261.196 200.686 258.927L225.68 262.48L230.535 269.797Z" fill="#312A46"/>
<path fill-rule="evenodd" clip-rule="evenodd" d="M228.97 65.2522C212.102 56.7391 196.976 53.2916 183.555 54.8922C170.152 56.4928 159.458 61.2946 151.508 69.2801L156.556 134.395H219.103L248.125 78.4088L228.97 65.2522Z" fill="#5340FF"/>
<path d="M187.563 76.9814H177.362C177.063 76.9814 176.834 76.7527 176.834 76.4537C176.834 76.1547 177.063 75.9261 177.362 75.9261H187.563C187.862 75.9261 188.091 76.1547 188.091 76.4537C188.091 76.7527 187.845 76.9814 187.563 76.9814Z" fill="#312A46"/>
<path fill-rule="evenodd" clip-rule="evenodd" d="M228.652 261.811L225.486 276.357C224.888 279.101 225.468 281.95 227.069 284.254L236.673 297.956C236.989 298.414 237.077 299.012 236.884 299.539C236.708 299.997 236.198 300.243 235.74 300.067L194.494 285.046L203.535 252.664L228.652 261.811Z" fill="#5340FF"/>
<path fill-rule="evenodd" clip-rule="evenodd" d="M158.437 266.786L156.449 281.544C156.08 284.323 154.549 286.82 152.263 288.421L138.543 298.007C138.086 298.324 137.805 298.851 137.805 299.414C137.805 299.907 138.209 300.311 138.702 300.311H182.604L185.19 266.786H158.437Z" fill="#5340FF"/>
<path fill-rule="evenodd" clip-rule="evenodd" d="M172.918 10.924C166.392 14.688 164.158 23.0253 167.922 29.5508L171.933 36.4809L195.537 22.8494L191.527 15.9017C187.763 9.39374 179.426 7.15993 172.918 10.924Z" fill="#F27A5F"/>
<path d="M180.182 15.3038C179.795 17.5041 180.969 19.5503 182.806 19.8741C184.643 20.1979 186.446 18.6767 186.834 16.4764C187.222 14.2761 186.047 12.2299 184.211 11.9061C182.374 11.5823 180.57 13.1035 180.182 15.3038Z" fill="white"/>
<path d="M188.566 12.1124C182.953 18.8019 182.594 27.7429 187.766 32.0827C192.937 36.4225 201.68 34.5176 207.294 27.8281C212.908 21.1386 213.266 12.1976 208.094 7.85784C202.923 3.51808 194.18 5.42292 188.566 12.1124Z" fill="#F27A5F"/>
<path d="M173.664 30.4829C171.767 41.2453 178.062 51.3506 187.724 53.0539C197.386 54.7571 206.757 47.4133 208.654 36.6509C210.551 25.8886 204.257 15.7832 194.595 14.08C184.932 12.3768 175.562 19.7206 173.664 30.4829Z" fill="#7EE0EC"/>
<path fill-rule="evenodd" clip-rule="evenodd" d="M198.246 17.0613C196.733 24.6598 193.304 29.7078 187.974 32.1879C182.645 34.6679 177.122 34.8438 171.37 32.7507C171.88 26.8936 174.694 22.2852 179.778 18.9433C184.861 15.6014 191.017 14.9682 198.246 17.0613Z" fill="#312A46"/>
<path d="M198.511 40.3461C198.318 40.3461 198.124 40.2405 198.036 40.0471C197.473 38.8862 196.77 38.1826 195.873 37.8836C194.729 37.5142 193.234 37.8484 191.423 38.851C191.176 38.9917 190.842 38.9038 190.701 38.6399C190.561 38.3937 190.649 38.0595 190.913 37.9188C192.988 36.7755 194.765 36.4237 196.189 36.881C197.368 37.2504 198.3 38.165 198.986 39.5897C199.109 39.8536 199.004 40.1702 198.74 40.2933C198.669 40.3461 198.581 40.3461 198.511 40.3461Z" fill="#312A46"/>
<path fill-rule="evenodd" clip-rule="evenodd" d="M193.86 134.413L178.118 196.52L189.093 274.052C185.875 270.306 180.457 268.424 172.859 268.424C165.26 268.424 158.911 270.306 153.827 274.052L142.482 196.52L156.501 134.413H193.86Z" fill="#FFBAFF"/>
<path fill-rule="evenodd" clip-rule="evenodd" d="M219.101 134.413C232.152 162.186 239.118 179.494 239.979 186.353C240.841 193.213 237.816 221.637 230.886 271.625C228.846 266.454 223.692 262.848 215.443 260.808C207.193 258.768 200.791 259.665 196.271 263.499L207 187.69L185.172 134.413H219.101Z" fill="#FFBAFF"/>
<path d="M207.017 188.217C206.788 188.217 206.595 188.077 206.507 187.848C206.419 187.566 206.577 187.267 206.841 187.179L212.487 185.35C212.769 185.262 213.068 185.421 213.156 185.684C213.243 185.966 213.085 186.265 212.821 186.353L207.175 188.182C207.122 188.2 207.07 188.217 207.017 188.217Z" fill="#312A46"/>
<path fill-rule="evenodd" clip-rule="evenodd" d="M154.814 105.145C151.701 105.761 144.999 102.507 138.966 95.2247C132.933 87.9428 133.672 84.9175 134.428 83.9325C134.938 83.2817 136.943 82.543 140.426 81.7339L157.751 93.6593C157.874 100.906 156.889 104.723 154.814 105.145Z" fill="#312A46"/>
<path fill-rule="evenodd" clip-rule="evenodd" d="M151.524 69.2946C136.574 82.5215 127.709 95.1505 124.93 107.164C120.761 125.193 137.998 132.686 173.95 132.686L188.708 131.789L184.82 109.31L156.942 107.639C155.007 107.516 153.53 105.862 153.635 103.91C153.688 102.995 154.092 102.151 154.761 101.535L167.302 89.9441L151.524 69.2946Z" fill="#7EE0EC"/>
<path fill-rule="evenodd" clip-rule="evenodd" d="M153.637 67.5025C141.325 76.895 134.94 82.3476 134.465 83.8251C136.347 83.5261 138.141 83.8251 139.83 84.7398C148.008 89.1722 156.522 97.2983 155.66 104.739L173.196 87.9761L153.637 67.5025Z" fill="#5340FF"/>
<path d="M156.502 104.879C156.379 104.879 156.256 104.826 156.15 104.738C155.939 104.545 155.922 104.21 156.115 103.999L169.395 89.3301C169.588 89.119 169.923 89.1014 170.134 89.2949C170.345 89.4884 170.362 89.8226 170.169 90.0337L156.889 104.703C156.801 104.826 156.66 104.879 156.502 104.879Z" fill="#312A46"/>
<path d="M193.034 157.593C192.735 157.593 192.506 157.365 192.506 157.066V150.065C192.506 148.957 192.893 147.884 193.596 147.04L196.499 143.54C196.692 143.311 197.009 143.276 197.237 143.469C197.466 143.663 197.501 143.979 197.308 144.208L194.405 147.708C193.86 148.377 193.561 149.203 193.561 150.065V157.066C193.561 157.365 193.333 157.593 193.034 157.593Z" fill="#312A46"/>
<path fill-rule="evenodd" clip-rule="evenodd" d="M286.862 73.3136H232.512V148.243H286.862V73.3136Z" fill="#D3B197"/>
<path fill-rule="evenodd" clip-rule="evenodd" d="M233.041 73.3136H182.385V148.243H233.041V73.3136Z" fill="#CFA88A"/>
<path fill-rule="evenodd" clip-rule="evenodd" d="M268.569 73.3136H251.508V123.618H268.569V73.3136Z" fill="#E2C6AF"/>
<path d="M232.514 148.769C232.215 148.769 231.986 148.523 231.986 148.224L232.514 120.609C232.514 120.31 232.76 120.081 233.059 120.099C233.358 120.099 233.587 120.345 233.569 120.644L233.042 148.259C233.042 148.54 232.795 148.769 232.514 148.769Z" fill="#312A46"/>
<path d="M279.94 145.638L281.375 137.497L274.273 136.245L272.838 144.386L279.94 145.638Z" fill="white"/>
<path fill-rule="evenodd" clip-rule="evenodd" d="M182.77 109.367C187.326 103.421 190.545 101.047 192.409 102.225C194.274 103.404 194.115 106.095 191.952 110.281C202.505 110.105 208.538 110.703 210.051 112.075C212.338 114.151 210.878 117.475 202.963 117.475C204.352 118.917 204.511 120.624 203.438 122.611C204.053 124.915 203.701 126.498 202.417 127.36C201.661 129.735 199.515 131.37 197.018 131.494L171.355 132.69L182.77 109.367Z" fill="#7EE0EC"/>
<path d="M197.968 123.226C197.018 123.226 195.998 123.156 194.978 122.945C194.696 122.892 194.503 122.61 194.556 122.329C194.608 122.048 194.89 121.854 195.171 121.907C199.164 122.698 203.227 121.414 203.28 121.397C203.561 121.309 203.86 121.467 203.948 121.731C204.036 122.012 203.878 122.311 203.614 122.399C203.473 122.452 201.011 123.226 197.968 123.226Z" fill="#312A46"/>
<path d="M196.736 128.501C195.786 128.501 194.766 128.431 193.745 128.219C193.464 128.167 193.27 127.885 193.323 127.604C193.376 127.322 193.657 127.129 193.939 127.182C197.914 127.973 201.995 126.689 202.047 126.672C202.329 126.584 202.628 126.742 202.716 127.006C202.804 127.287 202.645 127.586 202.382 127.674C202.241 127.727 199.778 128.501 196.736 128.501Z" fill="#312A46"/>
<path fill-rule="evenodd" clip-rule="evenodd" d="M381.666 212.087H316.059V300.384H381.666V212.087Z" fill="#D3B197"/>
<path fill-rule="evenodd" clip-rule="evenodd" d="M318.344 212.087H258.717V300.384H318.344V212.087Z" fill="#CFA88A"/>
<path fill-rule="evenodd" clip-rule="evenodd" d="M360.03 212.087H339.979V271.362H360.03V212.087Z" fill="#E2C6AF"/>
<path d="M317.639 300.911C317.34 300.911 317.111 300.664 317.111 300.365L317.815 267.825C317.815 267.526 318.061 267.298 318.36 267.315C318.659 267.315 318.888 267.562 318.87 267.861L318.167 300.4C318.167 300.682 317.92 300.911 317.639 300.911Z" fill="#312A46"/>
<path d="M365.153 287.739L366.832 297.266L375.146 295.8L373.467 286.273L365.153 287.739Z" fill="white"/>
<path fill-rule="evenodd" clip-rule="evenodd" d="M138.759 212.087H70.8652V300.384H138.759V212.087Z" fill="#D3B197"/>
<path fill-rule="evenodd" clip-rule="evenodd" d="M75.4375 212.087H15.8105V300.384H75.4375V212.087Z" fill="#CFA88A"/>
<path fill-rule="evenodd" clip-rule="evenodd" d="M117.302 212.087H97.25V271.362H117.302V212.087Z" fill="#E2C6AF"/>
<path d="M74.9105 300.911C74.6115 300.911 74.3828 300.665 74.3828 300.366L75.0864 267.826C75.0864 267.545 75.3326 267.316 75.614 267.316C75.614 267.316 75.614 267.316 75.6316 267.316C75.9307 267.316 76.1593 267.563 76.1417 267.862L75.4382 300.401C75.4382 300.683 75.1919 300.911 74.9105 300.911Z" fill="#312A46"/>
<path d="M122.42 287.739L124.1 297.266L132.414 295.801L130.735 286.274L122.42 287.739Z" fill="white"/>
<path fill-rule="evenodd" clip-rule="evenodd" d="M95.489 143.667H44.1289V212.088H95.489V143.667Z" fill="#D3B197"/>
<path fill-rule="evenodd" clip-rule="evenodd" d="M46.4155 143.667H0.15625V212.088H46.4155V143.667Z" fill="#CFA88A"/>
<path fill-rule="evenodd" clip-rule="evenodd" d="M78.7811 143.667H63.3027V189.574H78.7811V143.667Z" fill="#E2C6AF"/>
<path d="M45.889 212.616C45.59 212.616 45.3613 212.37 45.3613 212.07L45.889 186.918C45.889 186.619 46.1352 186.39 46.4343 186.408C46.7333 186.408 46.9619 186.654 46.9443 186.953L46.4167 212.106C46.4167 212.387 46.1704 212.616 45.889 212.616Z" fill="#312A46"/>
<path d="M82.7495 202.338L84.0625 209.786L90.4715 208.656L89.1585 201.208L82.7495 202.338Z" fill="white"/>
</svg>
