<svg width="245" height="210" viewBox="0 0 245 210" fill="none" xmlns="http://www.w3.org/2000/svg">
<path fill-rule="evenodd" clip-rule="evenodd" d="M32.0564 195.721C32.4316 196.028 32.4998 196.495 32.2724 197.132C31.9313 198.076 29.2028 200.056 22.6315 199.51C16.0602 198.964 15.8101 197.018 15.7191 196.472C15.6623 196.108 16.1739 195.254 17.2539 193.9L29.055 192.876L32.0564 195.721Z" fill="#312A46"/>
<path fill-rule="evenodd" clip-rule="evenodd" d="M55.3423 196.062C55.7289 196.37 55.8085 196.847 55.5697 197.473C55.2173 198.418 52.3864 200.375 45.5422 199.806C38.6981 199.237 38.4252 197.28 38.3343 196.734C38.2774 196.37 38.8004 195.516 39.9146 194.162L52.2045 193.195L55.3423 196.062Z" fill="#312A46"/>
<path fill-rule="evenodd" clip-rule="evenodd" d="M30.1911 192.227V198.667C30.1911 200.784 31.2257 202.775 32.9652 203.981L38.7861 208.055C39.0135 208.214 39.1499 208.476 39.1499 208.749C39.1499 208.999 38.9567 209.192 38.7065 209.192H16.9121V192.227H30.1911Z" fill="#5340FF"/>
<path fill-rule="evenodd" clip-rule="evenodd" d="M54.0665 191.999V198.439C54.0665 200.556 55.1011 202.547 56.8405 203.753L62.6615 207.826C62.8889 207.986 63.0253 208.247 63.0253 208.521C63.0253 208.771 62.832 208.964 62.5819 208.964H40.7988V191.999H54.0665Z" fill="#5340FF"/>
<path fill-rule="evenodd" clip-rule="evenodd" d="M38.2989 127.04L32.4438 196.357C30.8408 194.491 28.1577 193.558 24.3946 193.558C20.6314 193.558 17.721 194.491 15.6973 196.357L19.7787 127.04H38.2989Z" fill="#FFBAFF"/>
<path fill-rule="evenodd" clip-rule="evenodd" d="M50.8267 127.04L55.7268 196.858C50.804 194.15 44.9944 194.15 38.298 196.858L33.9551 127.097L50.8267 127.04Z" fill="#FFBAFF"/>
<path d="M36.4999 146.474C36.4886 146.474 36.4886 146.474 36.4772 146.474C36.2839 146.463 36.1475 146.292 36.1589 146.11L37.1366 132.888L40.5587 130.51C40.7178 130.408 40.9225 130.442 41.0362 130.601C41.1385 130.76 41.1044 130.965 40.9452 131.079L37.7846 133.275L36.841 146.167C36.8296 146.337 36.6818 146.474 36.4999 146.474Z" fill="#312A46"/>
<path fill-rule="evenodd" clip-rule="evenodd" d="M53.7836 92.7117C47.417 89.0137 40.9025 87.5687 34.2516 88.3652C27.6007 89.1616 22.0868 91.278 17.7324 94.7143L20.2336 127.04H51.2711L53.7836 92.7117Z" fill="#5340FF"/>
<path d="M35.1718 98.6054H30.1126C29.9193 98.6054 29.7715 98.4575 29.7715 98.2641C29.7715 98.0706 29.9193 97.9227 30.1126 97.9227H35.1718C35.365 97.9227 35.5128 98.0706 35.5128 98.2641C35.5128 98.4575 35.365 98.6054 35.1718 98.6054Z" fill="#312A46"/>
<path fill-rule="evenodd" clip-rule="evenodd" d="M27.9057 65.7317C24.6769 67.5978 23.5627 71.7395 25.4273 74.971L27.4169 78.4073L39.127 71.6371L37.1487 68.2122C35.2729 64.9694 31.1459 63.8657 27.9057 65.7317Z" fill="#F27A5F"/>
<path d="M33.1693 66.5286C32.0579 66.5286 31.157 67.2774 31.157 68.2012C31.157 69.125 32.0579 69.8738 33.1693 69.8738C34.2807 69.8738 35.1816 69.125 35.1816 68.2012C35.1816 67.2774 34.2807 66.5286 33.1693 66.5286Z" fill="white"/>
<path d="M43.3413 64.9709C39.5894 62.8029 35.1914 63.3968 33.518 66.2974C31.8447 69.198 33.5297 73.307 37.2816 75.475C41.0335 77.643 45.4316 77.0491 47.1049 74.1485C48.7783 71.2479 47.0932 67.139 43.3413 64.9709Z" fill="#F27A5F"/>
<path d="M36.9545 68.1558C31.5295 68.1558 27.1317 72.1038 27.1317 76.974C27.1317 81.8442 31.5295 85.7923 36.9545 85.7923C42.3795 85.7923 46.7773 81.8442 46.7773 76.974C46.7773 72.1038 42.3795 68.1558 36.9545 68.1558Z" fill="#7EE0EC"/>
<path fill-rule="evenodd" clip-rule="evenodd" d="M40.4805 68.7814C39.7301 72.559 38.0248 75.0623 35.3871 76.2911C32.7495 77.52 29.9982 77.611 27.156 76.5642C27.4061 73.6514 28.8045 71.3643 31.3284 69.7144C33.8523 68.0646 36.8879 67.746 40.4805 68.7814Z" fill="#312A46"/>
<path d="M39.0706 80.2844C38.9569 80.2844 38.8319 80.273 38.7182 80.2503C38.1156 80.1365 37.5927 79.7041 37.172 78.9759C37.0811 78.8166 37.1379 78.6004 37.2971 78.5094C37.4562 78.4184 37.6722 78.4753 37.7632 78.6345C38.0815 79.1807 38.4453 79.4993 38.8546 79.579C39.3207 79.67 39.9006 79.4538 40.56 78.9531C40.7078 78.8394 40.9238 78.8621 41.0375 79.01C41.1512 79.158 41.1284 79.3741 40.9806 79.4879C40.2871 80.0227 39.6505 80.2844 39.0706 80.2844Z" fill="#312A46"/>
<path fill-rule="evenodd" clip-rule="evenodd" d="M18.9252 112.51C17.3904 112.817 14.0593 111.201 11.0578 107.583C8.0564 103.964 8.43158 102.462 8.80676 101.973C9.05688 101.643 10.046 101.279 11.7854 100.881L20.3804 106.798C20.4373 110.405 19.9598 112.305 18.9252 112.51Z" fill="#312A46"/>
<path fill-rule="evenodd" clip-rule="evenodd" d="M58.1937 114.718C59.7626 114.752 62.2752 111.281 64.2307 107.219C66.1861 103.168 65.8564 100.87 65.4017 100.449C65.0947 100.176 64.0601 99.9825 62.2752 99.8915L54.8398 107.219C56.0336 112.192 57.1478 114.695 58.1937 114.718Z" fill="#312A46"/>
<path fill-rule="evenodd" clip-rule="evenodd" d="M60.7264 99.2419L69.7632 106.571L86.1753 95.9781L91.2368 102.684L76.6955 116.728C73.3218 119.987 68.0935 120.352 64.3108 117.595L53.949 110.062C50.9714 107.898 50.1829 103.789 52.1414 100.664C53.8545 97.9435 57.4449 97.1333 60.1632 98.8479C60.3534 98.96 60.5451 99.0949 60.7264 99.2419Z" fill="#7EE0EC"/>
<path d="M69.0932 108.74C69.0591 108.743 69.013 108.735 68.9774 108.714C68.8017 108.647 68.7088 108.459 68.7755 108.272L69.4336 106.435C69.5011 106.259 69.6883 106.167 69.8753 106.233C70.051 106.301 70.1439 106.488 70.0772 106.675L69.4191 108.512C69.3727 108.664 69.2414 108.741 69.0932 108.74Z" fill="#312A46"/>
<path fill-rule="evenodd" clip-rule="evenodd" d="M85.4661 96.6103L87.4569 93.4597C87.9595 92.6603 88.7494 92.0575 89.6643 91.7768C92.8564 90.812 94.5934 90.5535 94.8981 90.9999C95.4081 91.774 94.1009 93.2913 92.2004 93.9832C93.5983 95.7217 93.927 97.4895 93.184 99.2524C92.441 101.015 91.3963 102.537 90.0368 103.796L85.4661 96.6103Z" fill="#7EE0EC"/>
<path fill-rule="evenodd" clip-rule="evenodd" d="M93.9044 95.7648C94.7 97.8889 94.8637 99.3479 94.4106 100.148C93.7257 101.35 90.2604 101.449 89.8294 100.844C89.5371 100.439 89.493 100.06 89.6867 99.7118C89.2006 99.5423 88.9072 99.2744 88.8066 98.9083C88.7059 98.5421 88.7761 98.2243 89.0183 97.9296C88.3071 97.7856 88.0102 97.3699 88.1414 96.7136C88.3439 95.7141 91.7855 94.7784 91.4842 92.87L92.4961 92.2074L93.9044 95.7648Z" fill="#7EE0EC"/>
<path d="M91.0093 101.651C90.6122 101.653 90.2335 101.585 89.9217 101.388C89.5903 101.174 89.3707 100.849 89.2781 100.417C89.2353 100.237 89.3506 100.048 89.5457 100.011C89.7257 99.9682 89.9139 100.084 89.951 100.279C90.0008 100.531 90.1152 100.704 90.2884 100.813C90.8231 101.148 91.8884 100.885 92.5163 100.73C92.6398 100.7 92.7425 100.679 92.8406 100.648C93.0206 100.605 93.2089 100.72 93.2413 100.905C93.2841 101.085 93.1688 101.274 92.9842 101.306C92.8918 101.322 92.7937 101.354 92.6806 101.379C92.197 101.495 91.5842 101.656 91.0093 101.651Z" fill="#312A46"/>
<path d="M89.4436 98.3C89.2197 98.3002 88.9969 98.2749 88.7913 98.2046C88.3099 98.0455 87.9899 97.6898 87.8753 97.1804C87.8324 97.0002 87.9477 96.8118 88.1324 96.7794C88.3125 96.7365 88.5007 96.8519 88.5332 97.0367C88.5922 97.3093 88.7378 97.4687 88.9883 97.5563C89.7353 97.8088 91.1352 97.2349 91.5747 96.8522C91.7178 96.7262 91.936 96.7411 92.0515 96.8889C92.1774 97.032 92.1626 97.2504 92.0149 97.366C91.6111 97.7452 90.4514 98.2994 89.4436 98.3Z" fill="#312A46"/>
<path d="M89.9045 99.9244C89.6806 99.9246 89.4578 99.8993 89.2523 99.829C88.7708 99.6698 88.4508 99.3142 88.3362 98.8048C88.2934 98.6246 88.4087 98.4362 88.5934 98.4038C88.7734 98.3609 88.9616 98.4763 88.9941 98.6611C89.0531 98.9337 89.1987 99.0931 89.4492 99.1807C90.1963 99.4332 91.5961 98.8593 92.0357 98.4766C92.1787 98.3506 92.3969 98.3654 92.5125 98.5132C92.6384 98.6564 92.6235 98.8748 92.4758 98.9904C92.0767 99.38 90.9123 99.9238 89.9045 99.9244Z" fill="#312A46"/>
<path fill-rule="evenodd" clip-rule="evenodd" d="M53.7834 92.6777L65.4708 100.461C59.3656 103.282 56.9213 108.084 58.1264 114.866L46.9961 108.039L53.7834 92.6777Z" fill="#5340FF"/>
<path d="M51.7128 117.175C51.7015 117.175 51.6901 117.175 51.6787 117.175C51.4968 117.153 51.3604 116.993 51.3718 116.8L52.4291 106.719C52.4518 106.536 52.611 106.4 52.8043 106.411C52.9862 106.434 53.1226 106.593 53.1112 106.787L52.0539 116.868C52.0312 117.039 51.8834 117.175 51.7128 117.175Z" fill="#312A46"/>
<path fill-rule="evenodd" clip-rule="evenodd" d="M13.4917 98.4694C6.0791 105.035 1.67928 111.304 0.30363 117.266C-1.76553 126.221 6.78398 129.942 24.6334 129.942L31.955 129.498L30.0223 118.347L17.4254 117.596C16.1748 117.517 15.2198 116.447 15.288 115.184C15.3221 114.593 15.5836 114.046 16.0156 113.648L21.325 108.733L13.4917 98.4694Z" fill="#7EE0EC"/>
<path fill-rule="evenodd" clip-rule="evenodd" d="M18.0845 94.5098C12.1498 98.7198 9.05746 101.189 8.83008 101.928C9.76234 101.781 10.6491 101.928 11.4904 102.384C15.5492 104.58 19.7671 108.619 19.3464 112.317L28.0437 103.999L18.0845 94.5098Z" fill="#5340FF"/>
<path d="M19.7669 112.465C19.6873 112.465 19.6077 112.431 19.5395 112.374C19.4031 112.249 19.3917 112.033 19.5168 111.896L26.0995 104.614C26.2245 104.477 26.4405 104.466 26.577 104.591C26.7134 104.716 26.7248 104.932 26.5997 105.069L20.017 112.351C19.9488 112.419 19.8579 112.465 19.7669 112.465Z" fill="#312A46"/>
<path fill-rule="evenodd" clip-rule="evenodd" d="M212.481 195.721C212.106 196.028 212.038 196.495 212.265 197.132C212.606 198.076 215.335 200.056 221.906 199.51C228.466 198.975 228.728 197.018 228.819 196.472C228.875 196.108 228.364 195.254 227.284 193.9L215.483 192.876L212.481 195.721Z" fill="#312A46"/>
<path fill-rule="evenodd" clip-rule="evenodd" d="M189.2 196.062C188.814 196.37 188.734 196.847 188.973 197.473C189.325 198.418 192.156 200.375 199 199.806C205.844 199.237 206.117 197.28 206.208 196.734C206.265 196.37 205.742 195.516 204.628 194.162L192.338 193.195L189.2 196.062Z" fill="#312A46"/>
<path fill-rule="evenodd" clip-rule="evenodd" d="M214.121 191.999V198.439C214.121 200.556 213.086 202.547 211.347 203.753L205.526 207.826C205.299 207.986 205.162 208.247 205.162 208.521C205.162 208.771 205.355 208.964 205.606 208.964H227.389V191.999H214.121Z" fill="#5340FF"/>
<path fill-rule="evenodd" clip-rule="evenodd" d="M190.472 191.999V198.439C190.472 200.556 189.438 202.547 187.698 203.753L181.877 207.826C181.65 207.986 181.514 208.247 181.514 208.521C181.514 208.771 181.707 208.964 181.957 208.964H203.74V191.999H190.472Z" fill="#5340FF"/>
<path fill-rule="evenodd" clip-rule="evenodd" d="M206.242 127.04L212.097 196.357C213.7 194.491 216.383 193.558 220.147 193.558C223.91 193.558 226.82 194.491 228.844 196.357L224.762 127.04H206.242Z" fill="#FFBAFF"/>
<path fill-rule="evenodd" clip-rule="evenodd" d="M193.713 127.04L188.812 196.858C193.735 194.15 199.545 194.15 206.241 196.858L210.584 127.097L193.713 127.04Z" fill="#FFBAFF"/>
<path d="M208.028 146.474C207.846 146.474 207.698 146.338 207.687 146.156L206.743 133.264L203.583 131.068C203.424 130.966 203.389 130.749 203.492 130.59C203.594 130.431 203.81 130.397 203.969 130.499L207.391 132.877L208.369 146.099C208.38 146.292 208.244 146.452 208.051 146.463C208.051 146.474 208.039 146.474 208.028 146.474Z" fill="#312A46"/>
<path fill-rule="evenodd" clip-rule="evenodd" d="M190.756 92.7117C197.123 89.0137 203.637 87.5687 210.288 88.3652C216.939 89.1616 222.453 91.278 226.807 94.7143L224.306 127.04H193.268L190.756 92.7117Z" fill="#5340FF"/>
<path d="M214.428 98.6054H209.368C209.175 98.6054 209.027 98.4575 209.027 98.2641C209.027 98.0706 209.175 97.9227 209.368 97.9227H214.428C214.621 97.9227 214.769 98.0706 214.769 98.2641C214.769 98.4575 214.621 98.6054 214.428 98.6054Z" fill="#312A46"/>
<path fill-rule="evenodd" clip-rule="evenodd" d="M216.633 65.7323C219.862 67.5984 220.976 71.7401 219.112 74.9716L217.122 78.4079L205.412 71.6377L207.39 68.2128C209.266 64.97 213.393 63.8663 216.633 65.7323Z" fill="#F27A5F"/>
<path d="M210.293 69.4786C211.145 70.1936 212.316 70.1996 212.909 69.492C213.502 68.7844 213.293 67.6311 212.442 66.9162C211.591 66.2012 210.419 66.1952 209.826 66.9028C209.233 67.6104 209.442 68.7636 210.293 69.4786Z" fill="white"/>
<path d="M206.91 77.6031C210.055 76.4576 211.403 72.2259 209.921 68.1513C208.439 64.0767 204.689 61.7022 201.544 62.8478C198.399 63.9933 197.051 68.225 198.532 72.2995C200.014 76.3741 203.765 78.7486 206.91 77.6031Z" fill="#F27A5F"/>
<path d="M201.918 83.732C206.073 87.222 211.978 87.0271 215.106 83.2965C218.234 79.5659 217.401 73.7125 213.245 70.2224C209.089 66.7323 203.185 66.9273 200.057 70.6579C196.929 74.3884 197.762 80.2419 201.918 83.732Z" fill="#7EE0EC"/>
<path fill-rule="evenodd" clip-rule="evenodd" d="M204.059 68.782C204.809 72.5596 206.514 75.0629 209.152 76.2918C211.79 77.5206 214.541 77.6117 217.383 76.5648C217.133 73.652 215.735 71.3649 213.211 69.715C210.687 68.0652 207.651 67.7466 204.059 68.782Z" fill="#312A46"/>
<path d="M205.47 80.286C204.89 80.286 204.253 80.0243 203.571 79.4895C203.423 79.3757 203.389 79.1595 203.514 79.0116C203.628 78.8637 203.844 78.8296 203.992 78.9547C204.651 79.4668 205.22 79.6716 205.697 79.5805C206.095 79.5009 206.47 79.1823 206.788 78.6361C206.879 78.4768 207.095 78.4199 207.255 78.511C207.414 78.602 207.471 78.8182 207.38 78.9775C206.959 79.7057 206.436 80.1267 205.833 80.2519C205.708 80.2746 205.595 80.286 205.47 80.286Z" fill="#312A46"/>
<path fill-rule="evenodd" clip-rule="evenodd" d="M225.614 112.51C227.16 112.817 230.491 111.201 233.481 107.583C236.471 103.964 236.107 102.462 235.732 101.973C235.482 101.643 234.493 101.279 232.754 100.881L224.159 106.798C224.09 110.405 224.579 112.305 225.614 112.51Z" fill="#312A46"/>
<path fill-rule="evenodd" clip-rule="evenodd" d="M186.346 114.718C184.778 114.752 182.265 111.281 180.31 107.219C178.354 103.168 178.684 100.87 179.139 100.449C179.445 100.176 180.48 99.9825 182.265 99.8915L189.7 107.219C188.507 112.192 187.392 114.695 186.346 114.718Z" fill="#312A46"/>
<path fill-rule="evenodd" clip-rule="evenodd" d="M183.811 99.242L174.774 106.571L158.362 95.9782L153.3 102.684L167.842 116.728C171.215 119.987 176.444 120.353 180.226 117.595L190.588 110.062C193.566 107.898 194.354 103.79 192.396 100.664C190.683 97.9436 187.092 97.1334 184.374 98.848C184.184 98.9602 183.992 99.095 183.811 99.242Z" fill="#7EE0EC"/>
<path d="M175.442 108.739C175.305 108.741 175.175 108.652 175.116 108.511L174.458 106.674C174.39 106.498 174.484 106.299 174.66 106.232C174.835 106.164 175.034 106.258 175.102 106.434L175.76 108.271C175.827 108.447 175.733 108.645 175.558 108.713C175.511 108.732 175.476 108.741 175.442 108.739Z" fill="#312A46"/>
<path fill-rule="evenodd" clip-rule="evenodd" d="M159.067 96.6092L157.076 93.4586C156.574 92.6592 155.784 92.0564 154.869 91.7757C151.677 90.8109 149.94 90.5524 149.635 90.9988C149.125 91.7729 150.432 93.2902 152.333 93.9821C150.935 95.7207 150.606 97.4884 151.349 99.2513C152.092 101.014 153.137 102.536 154.496 103.795L159.067 96.6092Z" fill="#7EE0EC"/>
<path fill-rule="evenodd" clip-rule="evenodd" d="M150.635 95.7649C149.839 97.889 149.675 99.348 150.128 100.148C150.813 101.35 154.279 101.449 154.71 100.844C155.002 100.439 155.046 100.06 154.852 99.7119C155.338 99.5424 155.632 99.2745 155.733 98.9084C155.833 98.5422 155.763 98.2245 155.521 97.9297C156.232 97.7857 156.529 97.37 156.398 96.7137C156.195 95.7143 152.754 94.7785 153.055 92.8702L152.043 92.2075L150.635 95.7649Z" fill="#7EE0EC"/>
<path d="M153.53 101.65C152.945 101.651 152.327 101.501 151.859 101.379C151.746 101.354 151.647 101.322 151.555 101.306C151.375 101.263 151.255 101.085 151.298 100.905C151.341 100.725 151.519 100.605 151.699 100.648C151.791 100.664 151.9 100.7 152.023 100.73C152.661 100.89 153.727 101.153 154.251 100.813C154.424 100.704 154.539 100.53 154.588 100.279C154.631 100.098 154.809 99.9784 154.994 100.011C155.174 100.054 155.294 100.232 155.261 100.417C155.169 100.849 154.949 101.174 154.618 101.388C154.31 101.575 153.927 101.653 153.53 101.65Z" fill="#312A46"/>
<path d="M155.095 98.2995C154.098 98.3035 152.938 97.7493 152.498 97.3666C152.355 97.2406 152.34 97.0222 152.462 96.8895C152.587 96.7463 152.806 96.7314 152.949 96.8574C153.388 97.2401 154.793 97.8037 155.535 97.5615C155.786 97.4739 155.931 97.3146 155.99 97.042C156.033 96.8618 156.211 96.7417 156.391 96.7846C156.571 96.8274 156.691 97.0054 156.648 97.1856C156.534 97.6951 156.218 98.0403 155.732 98.2098C155.546 98.264 155.319 98.2996 155.095 98.2995Z" fill="#312A46"/>
<path d="M154.632 99.9246C153.635 99.9286 152.475 99.3744 152.035 98.9917C151.892 98.8657 151.877 98.6474 151.999 98.5146C152.125 98.3714 152.343 98.3565 152.486 98.4825C152.925 98.8652 154.33 99.4288 155.072 99.1867C155.323 99.099 155.468 98.9397 155.527 98.6671C155.57 98.4869 155.748 98.3668 155.928 98.4097C156.108 98.4526 156.228 98.6306 156.185 98.8108C156.071 99.3202 155.755 99.6654 155.269 99.8349C155.079 99.8995 154.856 99.9248 154.632 99.9246Z" fill="#312A46"/>
<path fill-rule="evenodd" clip-rule="evenodd" d="M190.758 92.6777L179.07 100.461C185.175 103.282 187.62 108.084 186.415 114.866L197.545 108.039L190.758 92.6777Z" fill="#5340FF"/>
<path d="M192.827 117.175C192.656 117.175 192.508 117.049 192.486 116.867L191.428 106.786C191.406 106.604 191.542 106.433 191.735 106.411C191.917 106.388 192.088 106.524 192.11 106.718L193.168 116.799C193.19 116.981 193.054 117.152 192.861 117.175C192.849 117.175 192.838 117.175 192.827 117.175Z" fill="#312A46"/>
<path fill-rule="evenodd" clip-rule="evenodd" d="M231.047 98.4694C238.46 105.035 242.86 111.304 244.235 117.266C246.305 126.221 237.755 129.942 219.906 129.942L212.584 129.498L214.517 118.347L227.114 117.596C228.364 117.517 229.319 116.447 229.251 115.184C229.217 114.593 228.955 114.046 228.523 113.648L223.214 108.733L231.047 98.4694Z" fill="#7EE0EC"/>
<path fill-rule="evenodd" clip-rule="evenodd" d="M226.455 94.5096C232.39 98.7196 235.482 101.189 235.71 101.928C234.777 101.78 233.891 101.928 233.049 102.383C228.991 104.58 224.773 108.619 225.193 112.317L216.496 103.999L226.455 94.5096Z" fill="#5340FF"/>
<path d="M224.775 112.465C224.684 112.465 224.593 112.431 224.525 112.351L217.943 105.069C217.818 104.932 217.829 104.716 217.965 104.591C218.102 104.466 218.318 104.477 218.443 104.614L225.025 111.896C225.151 112.032 225.139 112.249 225.003 112.374C224.935 112.431 224.855 112.465 224.775 112.465Z" fill="#312A46"/>
<path fill-rule="evenodd" clip-rule="evenodd" d="M213.623 83.3469H160.075V154.917H213.623V83.3469Z" fill="#D3B197"/>
<path fill-rule="evenodd" clip-rule="evenodd" d="M162.631 83.3469H28.4194V154.917H162.631V83.3469Z" fill="#CFA88A"/>
<path fill-rule="evenodd" clip-rule="evenodd" d="M196.182 83.3469H180.038V131.614H196.182V83.3469Z" fill="#E2C6AF"/>
<path d="M209.768 147.924L203.672 142.804L199.287 148.034L205.383 153.153L209.768 147.924Z" fill="white"/>
<path fill-rule="evenodd" clip-rule="evenodd" d="M28.9368 118.164C31.2447 115.343 32.8591 114.227 33.78 114.808C34.7009 115.388 34.6213 116.731 33.5526 118.813C38.7824 118.722 41.7838 119.018 42.5342 119.7C43.6711 120.724 42.9435 122.374 39.0211 122.374C39.7033 123.091 39.7829 123.933 39.2485 124.923C39.5555 126.072 39.385 126.857 38.7483 127.278C38.3731 128.45 37.3044 129.27 36.0766 129.315L22.0472 129.918L24.753 117.994L28.9368 118.164Z" fill="#7EE0EC"/>
<path d="M36.5346 125.321C36.0571 125.321 35.5455 125.287 35.0339 125.184C34.852 125.15 34.7269 124.968 34.761 124.786C34.7952 124.604 34.9771 124.479 35.159 124.513C37.1144 124.9 39.1154 124.263 39.1381 124.263C39.32 124.206 39.5133 124.308 39.5701 124.479C39.627 124.661 39.5247 124.854 39.3541 124.911C39.2973 124.934 38.0581 125.321 36.5346 125.321Z" fill="#312A46"/>
<path d="M35.9291 127.939C35.4516 127.939 34.94 127.904 34.4284 127.802C34.2465 127.768 34.1215 127.586 34.1556 127.404C34.1897 127.222 34.3716 127.097 34.5535 127.131C36.509 127.518 38.5099 126.88 38.5327 126.88C38.7146 126.824 38.9078 126.926 38.9647 127.097C39.0215 127.279 38.9192 127.472 38.7487 127.529C38.6805 127.552 37.4526 127.939 35.9291 127.939Z" fill="#312A46"/>
<path fill-rule="evenodd" clip-rule="evenodd" d="M215.545 118.351C213.272 115.404 211.68 114.221 210.759 114.813C209.838 115.404 209.918 116.736 210.986 118.818C205.757 118.727 202.755 119.023 202.005 119.705C200.868 120.73 201.596 122.379 205.518 122.379C204.836 123.096 204.756 123.938 205.291 124.928C204.984 126.077 205.154 126.862 205.791 127.283C206.166 128.455 207.235 129.275 208.462 129.32L222.492 129.923L215.545 118.351Z" fill="#7EE0EC"/>
<path d="M208.007 125.315C206.484 125.315 205.256 124.929 205.188 124.906C205.006 124.849 204.915 124.655 204.972 124.473C205.029 124.291 205.222 124.2 205.404 124.257C205.427 124.269 207.428 124.894 209.383 124.508C209.565 124.473 209.747 124.587 209.781 124.781C209.815 124.963 209.701 125.145 209.508 125.179C208.997 125.281 208.485 125.315 208.007 125.315Z" fill="#312A46"/>
<path d="M208.609 127.944C207.086 127.944 205.858 127.557 205.789 127.534C205.608 127.477 205.517 127.284 205.573 127.102C205.63 126.92 205.824 126.829 206.005 126.885C206.028 126.897 208.029 127.523 209.985 127.136C210.167 127.102 210.348 127.215 210.383 127.409C210.417 127.591 210.303 127.773 210.11 127.807C209.598 127.898 209.086 127.944 208.609 127.944Z" fill="#312A46"/>
<path fill-rule="evenodd" clip-rule="evenodd" d="M109.401 13.9661C106.9 11.1784 100.806 10.6095 96.2012 14.6261C91.5968 18.6427 92.6314 22.6023 83.4793 25.2194C74.3272 27.8364 72.3149 36.8481 80.5461 41.8887C88.7773 46.9293 106.126 32.8656 109.401 28.0867C112.675 23.3078 111.913 16.7538 109.401 13.9661Z" fill="#DA6A54"/>
<path d="M100.582 24.4529C104.261 27.5431 109.571 27.2737 112.44 23.8512C115.31 20.4287 114.653 15.1491 110.974 12.059C107.295 8.9688 101.986 9.2382 99.1159 12.6607C96.2462 16.0832 96.9027 21.3627 100.582 24.4529Z" fill="#FFBD4F"/>
<path d="M107.844 20.6347C107.707 20.6347 107.582 20.6234 107.457 20.6006C106.821 20.4754 106.275 20.0431 105.831 19.3148C105.729 19.1555 105.786 18.9393 105.945 18.8483C106.104 18.7459 106.32 18.8028 106.411 18.9621C106.752 19.5196 107.15 19.8496 107.594 19.9406C108.117 20.0431 108.753 19.8269 109.481 19.2921C109.629 19.1783 109.845 19.2124 109.958 19.3717C110.072 19.531 110.038 19.7358 109.879 19.8496C109.151 20.3616 108.469 20.6347 107.844 20.6347Z" fill="#131415"/>
<path fill-rule="evenodd" clip-rule="evenodd" d="M104.385 16.6748C102.611 18.0289 100.178 18.7002 97.0745 18.6661C96.7789 17.7558 97.3814 14.0123 100.372 11.8845C103.6 9.59749 106.829 10.2347 107.75 10.394C107.284 13.2272 106.158 15.3208 104.385 16.6748Z" fill="#DA6A54"/>
<path fill-rule="evenodd" clip-rule="evenodd" d="M120.961 29.2815C124.27 31.341 126.987 33.2526 129.09 35.039C131.194 36.8254 134.172 39.4424 138.015 42.9014L150.942 26.9148L158.82 31.853L148.759 49.2733C145.621 54.7122 138.663 56.5783 133.229 53.4265C132.876 53.2216 132.535 52.9941 132.205 52.7551L121.564 44.9495L120.961 29.2815Z" fill="#FFBD4F"/>
<path d="M138.019 45.8033C137.894 45.8033 137.769 45.7236 137.712 45.5985C137.371 44.8475 137.371 43.8917 137.689 42.7539C137.746 42.5718 137.928 42.4694 138.11 42.5149C138.292 42.5718 138.394 42.7539 138.349 42.9359C138.064 43.9258 138.064 44.7223 138.326 45.3254C138.405 45.4961 138.326 45.7009 138.155 45.7805C138.11 45.7919 138.064 45.8033 138.019 45.8033Z" fill="#312A46"/>
<path fill-rule="evenodd" clip-rule="evenodd" d="M169.943 107.236C166.1 111.207 161.098 113.505 159.756 111.241C158.403 108.977 161.098 102.263 163.133 100.682C165.179 99.1001 171.614 94.9583 173.49 96.7789C175.366 98.5994 173.786 103.265 169.943 107.236Z" fill="#312A46"/>
<path fill-rule="evenodd" clip-rule="evenodd" d="M166.257 94.6167L171.1 100.374C172.464 101.99 174.522 102.843 176.625 102.661L184.868 101.933C185.175 101.91 185.482 102.035 185.675 102.263C185.846 102.468 185.823 102.786 185.618 102.957L169.167 116.748C168.019 117.715 166.291 117.567 165.325 116.406L154.956 104.084L166.257 94.6167Z" fill="#5340FF"/>
<path fill-rule="evenodd" clip-rule="evenodd" d="M122.326 54.7919L124.793 61.9944L133.65 64.3497C135.287 64.7821 136.799 65.5786 138.084 66.6709L173.828 97.0626C170.713 96.9488 167.859 97.8022 165.29 99.6C162.721 101.398 160.56 104.254 158.821 108.145L124.793 74.6358L110.73 71.4954V54.7919H122.326Z" fill="#00A874"/>
<path fill-rule="evenodd" clip-rule="evenodd" d="M135.619 120.737C129.969 121.739 124.375 120.692 124.648 118.064C124.921 115.435 131.299 111.532 133.982 111.441C136.665 111.339 144.589 111.714 145.044 114.286C145.487 116.857 141.281 119.748 135.619 120.737Z" fill="#312A46"/>
<path fill-rule="evenodd" clip-rule="evenodd" d="M141.741 108.769L143.053 116.189C143.422 118.281 144.777 120.05 146.705 120.94L154.217 124.44C154.495 124.574 154.698 124.836 154.752 125.13C154.797 125.392 154.618 125.657 154.356 125.702L133.198 129.427C131.71 129.684 130.297 128.697 130.04 127.209L127.234 111.319L141.741 108.769Z" fill="#5340FF"/>
<path fill-rule="evenodd" clip-rule="evenodd" d="M100.669 55.812C94.814 66.2119 93.3474 73.8013 96.2806 78.5688C99.2139 83.3363 106.035 85.5779 116.756 85.2821L124.555 118.507C128.091 115.071 131.4 113.068 134.481 112.476C137.562 111.885 141.097 112.465 145.088 114.217L131.809 77.6585C130.763 74.7912 128.375 72.6293 125.419 71.8783L114.232 69.0337V55.812H100.669Z" fill="#00A874"/>
<path d="M116.759 85.7713C116.702 85.7713 116.645 85.76 116.588 85.7258C116.429 85.6348 116.372 85.43 116.463 85.2593L117.543 83.3477C117.634 83.1884 117.839 83.1202 118.009 83.2226C118.168 83.3136 118.225 83.5184 118.134 83.6891L117.054 85.6007C116.997 85.7144 116.884 85.7713 116.759 85.7713Z" fill="#312A46"/>
<path d="M114.257 69.2994C114.063 69.2994 113.916 69.1514 113.916 68.958V56.84C113.916 56.6466 114.063 56.4987 114.257 56.4987C114.45 56.4987 114.598 56.6466 114.598 56.84V68.958C114.598 69.1514 114.45 69.2994 114.257 69.2994Z" fill="#312A46"/>
<path fill-rule="evenodd" clip-rule="evenodd" d="M121.032 29.2699C118.065 28.189 113.449 27.9045 107.185 28.3938C100.932 28.8831 95.9747 30.5671 92.3139 33.4344L97.5209 44.8015L100.784 57.6363L122.328 55.5199L121.032 29.2699Z" fill="#FFBD4F"/>
<path d="M108.911 36.3598C108.718 36.3598 108.57 36.2119 108.57 36.0184C108.57 34.9375 108.502 34.0841 108.354 33.4811C108.308 33.299 108.422 33.117 108.604 33.0714C108.786 33.0259 108.968 33.1397 109.013 33.3218C109.172 33.9817 109.252 34.892 109.252 36.0184C109.252 36.2005 109.104 36.3598 108.911 36.3598Z" fill="#312A46"/>
<path fill-rule="evenodd" clip-rule="evenodd" d="M92.3113 33.407C89.253 36.6612 85.6376 42.339 81.4652 50.4518L61.7399 36.2402L55.0891 43.511L73.8252 59.7138C78.5775 63.8214 85.7513 63.298 89.8555 58.5419C90.4013 57.9047 90.8788 57.2106 91.2767 56.471L97.541 44.7854L92.3113 33.407Z" fill="#FFBD4F"/>
<path d="M81.796 53.3309C81.6027 53.3309 81.4549 53.183 81.4549 52.9895C81.4549 52.3182 81.3412 51.4762 81.1366 50.4863C81.0911 50.3042 81.2162 50.1222 81.3981 50.0767C81.58 50.0311 81.7619 50.1563 81.8074 50.3384C82.0347 51.3738 82.1484 52.2613 82.1484 52.9781C82.1371 53.183 81.9779 53.3309 81.796 53.3309Z" fill="#312A46"/>
<path fill-rule="evenodd" clip-rule="evenodd" d="M61.7726 36.1942C59.4306 33.3382 57.8957 31.9159 57.1909 31.9159C56.486 31.9159 56.3495 32.9968 56.7816 35.1701L53.7006 42.1564L56.1108 44.068L63.9668 37.992L61.7726 36.1942Z" fill="#FFBD4F"/>
<path fill-rule="evenodd" clip-rule="evenodd" d="M60.9316 37.2409C56.4409 34.5215 53.7919 33.1675 52.9733 33.1902C51.7455 33.213 51.8592 34.6467 53.2462 35.739C54.1671 36.4558 55.8383 37.6164 58.2713 39.2208L60.9316 37.2409Z" fill="#FFBD4F"/>
<path fill-rule="evenodd" clip-rule="evenodd" d="M57.623 38.2544C53.1323 35.5349 50.4833 34.1809 49.6647 34.2037C48.4369 34.2264 48.5506 35.6601 49.9376 36.7524C50.8471 37.4693 52.5297 38.6298 54.9627 40.2228L57.623 38.2544Z" fill="#FFBD4F"/>
<path fill-rule="evenodd" clip-rule="evenodd" d="M58.0781 41.6434C53.5874 38.924 50.9384 37.5699 50.1198 37.5927C48.8919 37.6154 49.0056 39.0491 50.3927 40.1415C51.3136 40.8583 52.9848 42.0189 55.4178 43.6232L58.0781 41.6434Z" fill="#FFBD4F"/>
<path d="M56.1112 40.2113C56.0544 40.2113 55.9976 40.1999 55.9521 40.1658C55.7815 40.0748 55.7247 39.87 55.8157 39.6993L57.7939 36.0354C57.8848 35.8648 58.0895 35.8079 58.26 35.8989C58.4305 35.9899 58.4874 36.1947 58.3964 36.3654L56.4182 40.0406C56.35 40.143 56.2363 40.2113 56.1112 40.2113Z" fill="#312A46"/>
<path d="M60.5432 38.8904C59.8838 38.8904 59.4063 38.7311 59.088 38.4012C58.7128 38.0143 58.5991 37.4226 58.7583 36.6489C58.7924 36.4668 58.9743 36.3417 59.1562 36.3872C59.3381 36.4213 59.4631 36.6034 59.4177 36.7854C59.304 37.3316 59.3608 37.7071 59.5655 37.9233C59.8383 38.2077 60.4636 38.276 61.3504 38.1281C61.5323 38.094 61.7142 38.2191 61.7483 38.4126C61.7824 38.5946 61.6574 38.7767 61.4641 38.8108C61.1344 38.8563 60.816 38.8904 60.5432 38.8904Z" fill="#312A46"/>
<path fill-rule="evenodd" clip-rule="evenodd" d="M96.7376 43.232L97.4538 44.7795L99.6821 57.6371L122.557 55.4069L121.454 37.4973C121.329 35.5061 119.714 33.9359 117.725 33.8676C115.656 33.7993 113.086 33.9473 110.028 34.3114C106.31 34.7551 102.638 35.745 99.0114 37.3039C96.7603 38.271 95.7144 40.8767 96.6807 43.1296C96.7035 43.1524 96.7148 43.1979 96.7376 43.232Z" fill="#312A46"/>
<path d="M117.78 35.1079C117.621 35.1079 117.484 34.9941 117.45 34.8348C116.757 31.6147 116.075 29.3049 115.427 27.9736C115.347 27.8029 115.415 27.5981 115.586 27.5185C115.756 27.4388 115.961 27.5071 116.041 27.6778C116.711 29.0659 117.405 31.4213 118.11 34.6982C118.155 34.8803 118.03 35.0623 117.848 35.1079C117.826 35.0965 117.803 35.1079 117.78 35.1079Z" fill="#312A46"/>
<path d="M99.7033 37.611C99.5442 37.611 99.4077 37.4972 99.3736 37.3379C98.6005 33.6969 97.8388 31.0798 97.1226 29.5665C97.043 29.3958 97.1112 29.191 97.2817 29.1114C97.4523 29.0317 97.6569 29.1 97.7365 29.2707C98.4755 30.8409 99.2486 33.5034 100.033 37.2014C100.067 37.3835 99.9534 37.5655 99.7715 37.611C99.7488 37.5996 99.7261 37.611 99.7033 37.611Z" fill="#312A46"/>
<path fill-rule="evenodd" clip-rule="evenodd" d="M152.149 24.4637C154.514 21.6191 156.037 20.1968 156.754 20.1968C157.47 20.1968 157.595 21.2777 157.163 23.4396L160.255 30.4146L158.254 32.8268L150.523 27.8999L152.149 24.4637Z" fill="#FFBD4F"/>
<path fill-rule="evenodd" clip-rule="evenodd" d="M153.023 25.5224C157.514 22.7915 160.163 21.4261 160.982 21.4489C162.21 21.4716 162.096 22.9167 160.709 24.009C159.788 24.7372 158.117 25.8978 155.684 27.5136L153.023 25.5224Z" fill="#FFBD4F"/>
<path fill-rule="evenodd" clip-rule="evenodd" d="M156.322 26.5352C160.813 23.8158 163.473 22.4618 164.292 22.4845C165.52 22.5073 165.406 23.9523 164.019 25.0333C163.098 25.7501 161.416 26.9221 158.983 28.5151L156.322 26.5352Z" fill="#FFBD4F"/>
<path fill-rule="evenodd" clip-rule="evenodd" d="M155.867 29.9367C160.358 27.2173 163.018 25.8633 163.837 25.886C165.065 25.9088 164.951 27.3538 163.564 28.4348C162.643 29.1516 160.961 30.3236 158.528 31.9166L155.867 29.9367Z" fill="#FFBD4F"/>
<path d="M157.843 28.5149C157.718 28.5149 157.605 28.4466 157.548 28.3328L155.547 24.6804C155.456 24.5097 155.513 24.3049 155.683 24.2138C155.854 24.1228 156.059 24.1797 156.149 24.3504L158.139 28.0142C158.23 28.1849 158.173 28.3897 158.003 28.4807C157.957 28.5035 157.9 28.5149 157.843 28.5149Z" fill="#312A46"/>
<path d="M153.41 27.1827C153.126 27.1827 152.819 27.1486 152.467 27.0917C152.285 27.0576 152.16 26.8869 152.182 26.6935C152.216 26.5114 152.387 26.3863 152.58 26.409C153.49 26.5569 154.115 26.4887 154.388 26.2042C154.593 25.988 154.638 25.6125 154.536 25.0777C154.502 24.8957 154.615 24.7136 154.797 24.6795C154.979 24.6454 155.161 24.7591 155.195 24.9412C155.354 25.7149 155.252 26.2952 154.877 26.6821C154.57 27.0234 154.081 27.1827 153.41 27.1827Z" fill="#312A46"/>
<path d="M63.8339 0C64.7321 0 65.4825 0.659947 65.6075 1.54746C65.9259 3.77763 66.5966 5.48439 67.6085 6.70187C68.5294 7.80558 69.4957 8.56793 70.4962 9.01169C71.3602 9.38717 71.9173 10.2406 71.9173 11.1736C71.9173 12.0952 71.4171 12.9486 70.6099 13.4037C68.5635 14.5416 67.3356 16.1004 66.8695 18.1372C66.3806 20.2649 66.085 22.1537 65.9827 23.8036C65.9145 24.8845 65.0277 25.7265 63.9363 25.7265C62.8562 25.7265 61.9581 24.8959 61.8671 23.8264C61.5715 20.1853 60.6847 17.7162 59.2863 16.4076C57.9107 15.1219 56.6942 14.3482 55.6369 14.0523C54.7728 13.8134 54.1816 13.0283 54.1816 12.1294C54.1816 11.1736 54.8865 10.3657 55.8415 10.2519C56.6828 10.1495 57.3991 9.94472 57.9903 9.67163C58.5928 9.38718 59.4228 8.61344 60.1276 7.55525C61.0713 6.13295 61.7193 4.32379 61.9353 2.17327C61.9353 2.15052 61.9353 2.12776 61.9467 2.105L62.0376 1.54746C62.1741 0.648569 62.9358 0 63.8339 0ZM63.8567 3.83452C63.4929 5.72333 62.8221 7.36182 61.9012 8.73861C60.9917 10.104 59.8662 11.1394 58.8884 11.606C58.3313 11.8677 57.7174 12.0725 57.0353 12.2204L57.0012 12.2318L57.058 12.2545C58.2063 12.7438 59.4114 13.5744 60.6734 14.7464L60.7529 14.8147C62.4242 16.3849 63.4588 18.9336 63.8908 22.4268L63.9022 22.5178V22.5065C64.05 21.0728 64.3228 19.4912 64.7094 17.7844L64.7435 17.6251C65.3574 14.9853 66.9718 12.9259 69.5412 11.4922C69.6663 11.4239 69.7345 11.2987 69.7345 11.1508C69.7345 11.0712 69.689 11.0029 69.6094 10.9688C68.302 10.4112 67.0741 9.43269 65.9486 8.07866C65.005 6.9522 64.3114 5.54128 63.8681 3.8459L63.8567 3.83452Z" fill="white"/>
<path fill-rule="evenodd" clip-rule="evenodd" d="M59.2414 11.0601C60.2646 10.5595 62.4361 8.44308 62.834 4.31272L62.9136 3.8462C62.9591 3.56174 63.2092 3.35693 63.4934 3.35693C63.7777 3.35693 64.0164 3.56174 64.0505 3.8462C64.3234 5.80329 64.9032 7.33937 65.8127 8.45445C66.6199 9.44438 67.4726 10.1385 68.3935 10.5481C68.7687 10.7188 69.0074 11.0942 69.0074 11.5039C69.0074 11.9362 68.78 12.3345 68.4049 12.5393C66.5972 13.5747 65.4717 15.0312 65.051 16.92C64.6531 18.6836 64.4143 20.2652 64.3347 21.6534C64.312 22.0516 63.9823 22.3702 63.573 22.3702C63.1637 22.3702 62.8227 22.063 62.7999 21.6534C62.5498 18.513 61.7881 16.3169 60.492 15.0881C59.321 13.973 58.2523 13.2675 57.2746 12.9831C56.9562 12.892 56.7402 12.5962 56.7402 12.2776C56.7402 11.9476 56.9904 11.6632 57.3087 11.6176C58.0477 11.5039 58.6957 11.3218 59.2414 11.0601Z" fill="#FFBD4F"/>
<path d="M161.96 51.3168C162.756 51.3168 163.438 51.9084 163.551 52.7049C163.779 54.2865 164.256 55.4926 164.961 56.346C165.609 57.1311 166.291 57.6545 166.985 57.9618C167.724 58.2804 168.201 59.0086 168.201 59.8164C168.201 60.6015 167.781 61.3184 167.087 61.7052C165.643 62.5017 164.791 63.5827 164.461 64.9936C164.097 66.5411 163.881 67.9065 163.813 69.1012C163.756 70.0456 162.972 70.7852 162.028 70.7852C161.084 70.7852 160.3 70.057 160.22 69.124C160.004 66.5183 159.379 64.7774 158.401 63.8671C157.435 62.9341 156.571 62.388 155.843 62.1831C155.082 61.9783 154.559 61.2842 154.559 60.4991C154.559 59.6571 155.184 58.9403 156.025 58.8379C156.616 58.7582 157.117 58.6217 157.526 58.4396C157.924 58.2576 158.492 57.7228 158.993 56.9832C159.663 55.9819 160.129 54.6962 160.277 53.1601C160.277 53.1373 160.277 53.1146 160.289 53.0918L160.357 52.6822C160.482 51.8971 161.164 51.3168 161.96 51.3168ZM162.028 55.4813L162.017 55.5154C161.721 56.5167 161.3 57.4042 160.789 58.1893C160.084 59.2248 159.22 60.0212 158.447 60.3854C158.242 60.4764 158.038 60.5674 157.822 60.6357L157.753 60.6584L157.787 60.6812C158.447 61.0567 159.129 61.5573 159.822 62.2059L159.891 62.2742C160.88 63.1958 161.562 64.5385 161.983 66.2907L161.994 66.3249L162.005 66.2338C162.096 65.7218 162.21 65.187 162.335 64.6409L162.369 64.493C162.824 62.5131 164.029 60.9657 165.916 59.8847L165.962 59.8619L165.928 59.8506C165.007 59.4068 164.165 58.7241 163.381 57.8138L163.324 57.7456C162.801 57.1198 162.38 56.3915 162.062 55.5609L162.028 55.4813Z" fill="white"/>
<path fill-rule="evenodd" clip-rule="evenodd" d="M158.618 59.7821C159.368 59.418 160.948 57.8591 161.244 54.8097L161.301 54.4684C161.335 54.2635 161.517 54.1042 161.721 54.1042C161.926 54.1042 162.096 54.2522 162.131 54.457C162.324 55.902 162.756 57.0285 163.427 57.8477C164.018 58.576 164.643 59.088 165.314 59.3952C165.587 59.5204 165.769 59.7934 165.769 60.1007C165.769 60.4193 165.598 60.7151 165.325 60.863C163.995 61.6254 163.188 62.6949 162.87 64.0831C162.574 65.3916 162.403 66.5522 162.347 67.5763C162.335 67.8721 162.085 68.0997 161.789 68.0997C161.494 68.0997 161.244 67.8721 161.221 67.5763C161.039 65.2551 160.482 63.6507 159.538 62.7405C158.686 61.9212 157.901 61.3978 157.185 61.193C156.946 61.1247 156.787 60.9085 156.787 60.6696C156.787 60.4306 156.969 60.2144 157.208 60.1917C157.742 60.112 158.208 59.9755 158.618 59.7821Z" fill="#FFBD4F"/>
<path fill-rule="evenodd" clip-rule="evenodd" d="M163.871 6.31506H134.891C133.027 6.31506 131.435 7.69185 131.174 9.53515L127.319 36.3199C127.047 38.1859 128.343 39.9155 130.207 40.1885C130.366 40.2113 130.526 40.2227 130.696 40.2227H159.676C161.54 40.2227 163.121 38.8459 163.393 37.0026L167.248 10.2179C167.52 8.3518 166.224 6.62228 164.36 6.3492C164.189 6.32644 164.03 6.31506 163.871 6.31506Z" fill="white"/>
<path d="M138.903 19.0593H138.63C138.426 19.0593 138.221 19.0365 138.016 19.0024C137.198 18.8431 136.493 18.3652 136.027 17.6711C135.572 16.9884 135.413 16.1578 135.572 15.3499C135.606 15.1679 135.788 15.0427 135.97 15.0882C136.152 15.1223 136.277 15.3044 136.231 15.4865C136.106 16.1123 136.231 16.7608 136.584 17.2956C136.948 17.8418 137.493 18.2059 138.141 18.3311C138.312 18.3652 138.471 18.3766 138.63 18.3766H138.903C140.711 18.3766 142.28 17.1022 142.632 15.3499C142.757 14.7241 142.632 14.0755 142.28 13.5408C141.916 12.9946 141.37 12.6305 140.722 12.5053C140.563 12.4712 140.404 12.4598 140.245 12.4598H139.972C139.778 12.4598 139.631 12.3119 139.631 12.1185C139.631 11.925 139.778 11.7771 139.972 11.7771H140.245C140.449 11.7771 140.654 11.7999 140.859 11.834C141.677 12.0047 142.382 12.4712 142.837 13.1653C143.292 13.848 143.451 14.6786 143.292 15.4865C142.882 17.5573 141.029 19.0593 138.903 19.0593Z" fill="#312A46"/>
<path d="M139.473 16.8296C139.382 16.8296 139.303 16.7955 139.234 16.7272L135.619 13.143C135.483 13.0065 135.483 12.7903 135.619 12.6651C135.755 12.5286 135.971 12.5286 136.096 12.6651L139.473 16.0104L140.621 14.8726C140.758 14.736 140.974 14.736 141.099 14.8726C141.235 15.0091 141.235 15.2253 141.099 15.3505L139.712 16.7272C139.644 16.7955 139.564 16.8296 139.473 16.8296Z" fill="#312A46"/>
<path d="M137.087 34.5335H136.814C136.609 34.5335 136.405 34.5108 136.2 34.4766C135.381 34.3173 134.676 33.8394 134.21 33.1454C133.756 32.4626 133.596 31.632 133.756 30.8242C133.79 30.6421 133.972 30.5169 134.153 30.5625C134.335 30.5966 134.46 30.7786 134.415 30.9607C134.29 31.5865 134.415 32.2351 134.767 32.7699C135.131 33.316 135.677 33.6801 136.325 33.8053C136.495 33.8394 136.655 33.8508 136.814 33.8508H137.087C138.894 33.8508 140.463 32.5764 140.816 30.8242C140.941 30.1983 140.816 29.5498 140.463 29.015C140.099 28.4688 139.554 28.1047 138.906 27.9796C138.747 27.9454 138.587 27.934 138.428 27.934H138.155C137.962 27.934 137.814 27.7861 137.814 27.5927C137.814 27.3993 137.962 27.2513 138.155 27.2513H138.428C138.633 27.2513 138.837 27.2741 139.042 27.3082C139.861 27.4789 140.566 27.9454 141.02 28.6395C141.475 29.3222 141.634 30.1528 141.475 30.9607C141.066 33.0316 139.213 34.5335 137.087 34.5335Z" fill="#312A46"/>
<path d="M137.655 32.3041C137.564 32.3041 137.484 32.27 137.416 32.2017L133.801 28.6175C133.664 28.481 133.664 28.2648 133.801 28.1396C133.937 28.0031 134.153 28.0031 134.278 28.1396L137.655 31.4849L138.803 30.347C138.939 30.2105 139.155 30.2105 139.28 30.347C139.417 30.4836 139.417 30.6998 139.28 30.8249L137.893 32.2017C137.825 32.27 137.746 32.3041 137.655 32.3041Z" fill="#312A46"/>
<path d="M160.869 16.2716H148.136C147.943 16.2716 147.795 16.1237 147.795 15.9302C147.795 15.7368 147.943 15.5889 148.136 15.5889H160.869C161.063 15.5889 161.21 15.7368 161.21 15.9302C161.21 16.1237 161.063 16.2716 160.869 16.2716Z" fill="#312A46"/>
<path d="M158.936 31.8599H146.202C146.009 31.8599 145.861 31.712 145.861 31.5186C145.861 31.3252 146.009 31.1772 146.202 31.1772H158.936C159.129 31.1772 159.277 31.3252 159.277 31.5186C159.277 31.712 159.129 31.8599 158.936 31.8599Z" fill="#312A46"/>
</svg>
