<svg width="252" height="210" viewBox="0 0 252 210" fill="none" xmlns="http://www.w3.org/2000/svg">
<path d="M197.435 0H61.623V193.249H197.435V0Z" fill="#FFA971"/>
<path d="M176.667 24.436H101.225V193.24H176.667V24.436Z" fill="#FF893D"/>
<path fill-rule="evenodd" clip-rule="evenodd" d="M78.526 62.2036H89.1879C90.9649 62.2036 92.4034 63.6421 92.4034 65.4191V76.081C92.4034 77.858 90.9649 79.2965 89.1879 79.2965H78.526C76.7491 79.2965 75.3105 77.858 75.3105 76.081V65.4191C75.3105 63.6421 76.7491 62.2036 78.526 62.2036Z" fill="#FF893D"/>
<path fill-rule="evenodd" clip-rule="evenodd" d="M75.9577 62.2036H86.6196C88.3966 62.2036 89.8351 63.6421 89.8351 65.4191V76.081C89.8351 77.858 88.3966 79.2965 86.6196 79.2965H75.9577C74.1807 79.2965 72.7422 77.858 72.7422 76.081V65.4191C72.7422 63.6421 74.1807 62.2036 75.9577 62.2036Z" fill="#FFBD4F"/>
<path fill-rule="evenodd" clip-rule="evenodd" d="M80.8777 67.0742H81.705C83.482 67.0742 84.9205 68.5127 84.9205 70.2897V71.1171C84.9205 72.8941 83.482 74.3326 81.705 74.3326H80.8777C79.1007 74.3326 77.6622 72.8941 77.6622 71.1171V70.2897C77.6528 68.5127 79.1007 67.0742 80.8777 67.0742Z" fill="#FF893D"/>
<path d="M171.795 24.436H96.3535V193.24H171.795V24.436Z" fill="white"/>
<path d="M158.172 37.5806H109.996V72.4997H158.172V37.5806Z" fill="#FFBD4F"/>
<path d="M161.558 111.554C163.411 111.554 164.914 110.051 164.914 108.197C164.914 106.344 163.411 104.841 161.558 104.841C159.704 104.841 158.201 106.344 158.201 108.197C158.201 110.051 159.704 111.554 161.558 111.554Z" fill="#FFBD4F"/>
<path d="M96.3543 69.4915C96.1945 69.4915 96.0723 69.3693 96.0723 69.2094V48.1019C96.0723 47.9421 96.1945 47.8198 96.3543 47.8198C96.5142 47.8198 96.6364 47.9421 96.6364 48.1019V69.2094C96.6364 69.3693 96.5142 69.4915 96.3543 69.4915Z" fill="#312A46"/>
<path d="M96.3543 162.297C96.1945 162.297 96.0723 162.175 96.0723 162.015V140.908C96.0723 140.748 96.1945 140.625 96.3543 140.625C96.5142 140.625 96.6364 140.748 96.6364 140.908V162.015C96.6364 162.175 96.5142 162.297 96.3543 162.297Z" fill="#312A46"/>
<path d="M250.063 30.9907C251.042 30.9907 251.842 31.7905 251.842 32.7692V207.759C251.842 208.738 251.042 209.538 250.063 209.538H168.282C167.304 209.538 166.504 208.738 166.504 207.759V32.7692C166.504 31.7905 167.304 30.9907 168.282 30.9907H250.063ZM248.285 34.5478H170.05V205.981H248.285V34.5478Z" fill="white"/>
<path fill-rule="evenodd" clip-rule="evenodd" d="M133.66 149.268C137.417 149.268 140.458 152.309 140.458 156.066C140.458 156.255 140.448 156.434 140.437 156.624L137.848 188.006H130.113L129.903 185.838L124.452 190.731L120.874 182.954L116.159 186.522L116.148 186.532C113.075 188.848 108.697 188.237 106.382 185.154C104.025 182.028 104.541 177.598 107.55 175.093L111.328 171.946C111.728 171.62 112.149 171.315 112.591 171.062C117.053 168.453 122.789 169.957 125.388 174.42L129.461 181.376L127.009 156.613C126.641 152.94 129.324 149.667 133.008 149.299C133.218 149.278 133.439 149.268 133.66 149.268ZM148.278 156.676C148.509 156.697 148.73 156.729 148.962 156.771C152.477 157.476 154.75 160.896 154.045 164.411C154.003 164.632 153.939 164.853 153.876 165.074L147.088 186.648C146.436 188.721 144.51 190.142 142.332 190.142C140.49 190.142 138.996 188.648 138.996 186.806C138.996 186.701 138.996 186.606 139.006 186.501L141.227 162.538C141.553 158.971 144.721 156.35 148.278 156.676ZM139.395 182.954C146.299 182.954 151.887 188.542 151.887 195.446C151.887 202.35 146.299 207.938 139.395 207.938H130.882C123.978 207.938 118.39 202.35 118.39 195.446C118.39 188.542 123.978 182.954 130.882 182.954H139.395ZM147.562 162.096L142.889 185.764L147.562 162.096ZM134.155 190.163C136.607 190.163 138.596 192.152 138.596 194.604C138.596 197.056 136.607 199.056 134.155 199.056C131.703 199.056 129.714 197.067 129.714 194.615C129.714 192.163 131.703 190.163 134.155 190.163Z" fill="white"/>
<path d="M133.659 147.49C138.395 147.49 142.236 151.331 142.236 156.067C142.236 156.298 142.225 156.54 142.204 156.772L142.183 156.972L142.204 156.951C143.825 155.519 145.993 154.73 148.298 154.899L148.434 154.909C148.729 154.941 149.013 154.983 149.308 155.035C153.78 155.94 156.685 160.297 155.78 164.77C155.727 165.054 155.654 165.338 155.559 165.622L149.392 185.27L149.487 185.365C152.012 187.891 153.602 191.374 153.665 195.215V195.447C153.665 203.329 147.277 209.717 139.394 209.717H130.881C122.998 209.717 116.61 203.329 116.61 195.447C116.61 191.827 117.957 188.512 120.188 185.996L120.273 185.902L120.178 185.702L117.231 187.933C117.231 187.933 117.221 187.933 117.221 187.943C113.348 190.858 107.865 190.08 104.96 186.217C102.035 182.334 102.677 176.841 106.413 173.726L110.191 170.579C110.664 170.19 111.169 169.832 111.696 169.527C117 166.422 123.83 168.211 126.934 173.515L126.903 173.452L125.24 156.793C124.787 152.194 128.113 148.079 132.691 147.553L132.827 147.542C133.101 147.511 133.375 147.49 133.659 147.49ZM147.929 188.964L147.919 188.975C146.677 190.785 144.614 191.921 142.33 191.921C141.057 191.921 139.899 191.458 139.005 190.69L138.963 190.658L138.994 190.701C139.836 191.742 140.341 193.058 140.373 194.5V194.605C140.373 198.046 137.584 200.824 134.153 200.824C130.723 200.824 127.934 198.036 127.934 194.605C127.934 192.679 128.807 190.964 130.175 189.817L130.218 189.785H130.112C129.607 189.785 129.134 189.564 128.807 189.217L128.797 189.206L125.629 192.048C124.745 192.837 123.356 192.563 122.84 191.5L122.83 191.469L121.935 189.532L121.851 189.659C120.809 191.279 120.188 193.205 120.157 195.268V195.447C120.157 201.361 124.956 206.16 130.87 206.16H139.384C145.298 206.16 150.097 201.361 150.097 195.447C150.097 193.016 149.287 190.785 147.929 188.985V188.964ZM134.153 191.942C132.68 191.942 131.491 193.132 131.491 194.605C131.491 196.078 132.68 197.267 134.153 197.267C135.627 197.267 136.816 196.078 136.816 194.605C136.816 193.132 135.627 191.942 134.153 191.942ZM138.153 189.764H138.131C138.121 189.764 138.11 189.764 138.1 189.764H138.079L138.131 189.806C138.184 189.848 138.226 189.89 138.279 189.932L138.331 189.974L138.31 189.943C138.247 189.901 138.205 189.838 138.153 189.764ZM140.952 184.849L140.783 186.67C140.783 186.723 140.773 186.765 140.773 186.817C140.773 187.68 141.468 188.375 142.33 188.375C143.593 188.375 144.719 187.638 145.246 186.512L145.256 186.481L145.172 186.428C145.035 186.344 144.888 186.249 144.751 186.165L144.625 186.091L141.141 185.407L141.247 184.891L141.131 184.87C141.078 184.86 141.015 184.849 140.962 184.839L140.952 184.849ZM128.05 185.112L127.976 185.133C126.776 185.47 125.671 186.007 124.682 186.702L124.587 186.775L125.061 187.796L128.05 185.112ZM136.332 184.734H131.291C131.48 184.976 131.617 185.27 131.659 185.618V185.66L131.712 186.228H136.195L136.332 184.734ZM123.851 175.304C121.735 171.695 117.094 170.474 113.485 172.589C113.127 172.8 112.78 173.042 112.464 173.305L108.686 176.451C106.402 178.346 106.013 181.703 107.802 184.071C109.528 186.365 112.79 186.828 115.084 185.102C115.084 185.102 115.084 185.102 115.095 185.091L119.81 181.524C120.715 180.84 122.02 181.166 122.493 182.197L123.082 183.481L123.177 183.418C124.472 182.587 125.913 181.955 127.45 181.576L127.523 181.555L123.851 175.304ZM142.993 162.697L141.278 181.303L141.478 181.334C141.552 181.345 141.625 181.355 141.71 181.366L141.931 181.408L145.814 161.75L149.297 162.434L145.34 182.471H145.351C145.688 182.629 146.014 182.797 146.34 182.976L146.372 182.997L152.17 164.549C152.212 164.412 152.244 164.286 152.276 164.149L152.297 164.065C152.812 161.518 151.16 159.034 148.613 158.519C148.445 158.487 148.287 158.466 148.119 158.445C145.53 158.203 143.236 160.108 142.993 162.697ZM133.659 151.047C133.501 151.047 133.333 151.057 133.175 151.068C130.481 151.331 128.513 153.741 128.776 156.435L131.228 181.177H136.627L138.658 156.477C138.668 156.372 138.668 156.256 138.679 156.151V156.067C138.679 153.299 136.427 151.047 133.659 151.047Z" fill="white"/>
<path fill-rule="evenodd" clip-rule="evenodd" d="M133.755 149.267C137.512 149.267 140.554 152.308 140.554 156.065C140.554 156.254 140.543 156.433 140.533 156.623L137.944 188.005H130.209L127.104 156.612C126.736 152.939 129.419 149.667 133.103 149.298C133.313 149.277 133.534 149.267 133.755 149.267Z" fill="#00A874"/>
<path fill-rule="evenodd" clip-rule="evenodd" d="M149.056 156.771C152.571 157.476 154.844 160.896 154.139 164.411C154.097 164.632 154.034 164.853 153.971 165.074L147.183 186.648C146.53 188.721 144.604 190.142 142.426 190.142C140.584 190.142 139.09 188.648 139.09 186.806C139.09 186.701 139.09 186.606 139.1 186.501L141.321 162.538C141.647 158.971 144.804 156.35 148.372 156.676C148.603 156.697 148.835 156.729 149.056 156.771Z" fill="#00A874"/>
<path fill-rule="evenodd" clip-rule="evenodd" d="M131.421 184.564L125.486 174.409C122.876 169.947 117.141 168.442 112.689 171.052C112.247 171.315 111.815 171.609 111.426 171.936L107.648 175.082C104.638 177.587 104.123 182.018 106.48 185.143C108.795 188.216 113.173 188.837 116.246 186.522L116.257 186.511L120.971 182.954L124.549 190.731L131.421 184.564Z" fill="#00A874"/>
<path d="M142.975 186.081C142.954 186.081 142.933 186.081 142.912 186.071C142.744 186.039 142.628 185.871 142.659 185.702L147.332 162.034C147.364 161.866 147.532 161.75 147.7 161.782C147.869 161.813 147.985 161.982 147.953 162.15L143.28 185.818C143.259 185.976 143.123 186.081 142.975 186.081Z" fill="#312A46"/>
<path d="M133.935 184.88C133.756 184.88 133.619 184.743 133.619 184.565V153.961C133.619 153.782 133.756 153.646 133.935 153.646C134.114 153.646 134.251 153.782 134.251 153.961V184.565C134.251 184.733 134.114 184.88 133.935 184.88Z" fill="#312A46"/>
<path d="M120.969 183.174C120.853 183.174 120.738 183.1 120.685 182.985L119.412 180.217C119.338 180.059 119.412 179.869 119.569 179.796C119.727 179.722 119.917 179.796 119.99 179.954L121.264 182.732C121.337 182.89 121.264 183.079 121.106 183.153C121.053 183.174 121.011 183.174 120.969 183.174Z" fill="#312A46"/>
<path fill-rule="evenodd" clip-rule="evenodd" d="M130.98 182.859H139.494C146.397 182.859 151.986 188.447 151.986 195.351C151.986 202.254 146.397 207.842 139.494 207.842H130.98C124.076 207.842 118.488 202.254 118.488 195.351C118.488 188.458 124.076 182.859 130.98 182.859Z" fill="#FFBAFF"/>
<path d="M134.253 199.371C131.632 199.371 129.496 197.235 129.496 194.614C129.496 191.994 131.632 189.857 134.253 189.857C136.873 189.857 139.01 191.994 139.01 194.614C139.01 197.235 136.873 199.371 134.253 199.371ZM134.253 190.478C131.98 190.478 130.128 192.331 130.128 194.604C130.128 196.877 131.98 198.729 134.253 198.729C136.526 198.729 138.378 196.877 138.378 194.604C138.378 192.331 136.526 190.478 134.253 190.478Z" fill="#312A46"/>
<path fill-rule="evenodd" clip-rule="evenodd" d="M35.0526 113.488L35.0211 113.636C34.9263 114.088 35.2105 114.541 35.663 114.635C35.7262 114.646 35.7788 114.656 35.8419 114.656H47.0603C47.2918 114.656 47.5234 114.593 47.7128 114.467H47.7233L47.2918 120.381H33.3793V120.434L46.8183 120.381L52.0697 195.206L52.0486 195.195C52.0486 195.395 51.996 195.616 51.9013 195.869C51.7645 196.248 51.2488 196.774 50.2911 197.258V197.742C50.2911 199.489 51.1436 201.12 52.5748 202.109L59.51 206.95C59.7521 207.119 59.8994 207.403 59.8994 207.697C59.8994 207.961 59.6889 208.171 59.4258 208.171H36.0524V197.416C33.8319 196.626 33.5162 195.637 33.432 195.174L33.3793 195.195L30.6958 152.132L27.0966 194.658C27.0756 194.637 27.0651 194.616 27.044 194.595C27.0861 194.848 27.0335 195.143 26.9177 195.479C26.7599 195.911 26.139 196.542 24.9287 197.079V197.721C24.9287 199.468 25.7811 201.099 27.2124 202.088L34.1476 206.929C34.3896 207.098 34.537 207.382 34.537 207.676C34.537 207.94 34.3265 208.15 34.0634 208.15H10.7005V196.658C9.34293 195.911 9.22717 195.1 9.17455 194.764C9.16403 194.722 9.16403 194.669 9.17455 194.606L9.13246 194.648L13.5104 120.35H14.005L13.7735 118.119L35.0526 113.488ZM4.63878 100.565L4.65983 100.596C5.25969 101.375 6.38574 102.354 8.37474 103.522C9.76389 104.332 11.1109 104.932 12.3527 105.332L12.4685 105.364L13.784 118.161L11.8055 118.592C10.3953 118.897 8.9325 118.834 7.55388 118.403L7.48022 118.382C3.15492 116.972 0.797587 112.32 2.2183 107.995L4.63878 100.565ZM48.5126 103.585L50.2385 104.648L48.2495 113.709C48.1758 114.025 47.9864 114.288 47.7338 114.467L47.7128 114.477L48.5126 103.585ZM80.1683 55.5124C80.3051 55.5124 80.4314 55.5229 80.5682 55.544C82.1047 55.765 83.1676 57.1857 82.9466 58.7222L79.1159 85.358C78.8949 86.8734 77.5899 88.01 76.064 88.01H56.6475L62.5198 91.9143L62.4672 91.9354C62.7513 92.2301 62.9723 93.2193 62.6777 94.861L67.1187 98.4602L84.1568 87.4733L86.2931 84.0951C86.7036 83.4532 87.3245 82.9691 88.0401 82.727L88.0822 82.7165C91.7445 81.5799 93.7335 81.2642 94.0702 81.7694C94.5333 82.4745 93.6072 83.7268 92.0918 84.5582L93.0073 86.8734C93.8598 89.1466 94.0387 90.7146 93.5546 91.5776C93.2073 92.188 92.197 92.5352 91.1762 92.651C90.8605 93.1562 90.5237 93.6402 90.1449 94.0928L90.0712 94.1875L90.1449 94.2927L73.1068 110.741C70.3285 113.425 66.0243 113.72 62.9092 111.457L56.1634 106.553C55.6372 106.974 55.1426 107.205 54.7217 107.195C54.6901 107.195 54.6585 107.195 54.6164 107.184C54.6269 107.237 54.6375 107.29 54.648 107.353L50.249 104.659L51.3014 99.8914C51.2383 99.6599 51.1857 99.4178 51.1225 99.1758L51.5435 98.7548L52.4906 94.4401C52.5853 93.9981 52.3117 93.5561 51.8697 93.4403L51.8487 93.4298C51.7855 93.4192 51.7329 93.4087 51.6698 93.4087H49.2703L49.6702 87.9995H48.018L45.6291 93.4087H40.4408C39.8831 93.4087 39.3885 93.7876 39.2622 94.3348L39.2516 94.3664L38.2203 99.0705C38.1256 98.9969 38.0204 98.9337 37.9046 98.8811C36.9995 98.5128 35.7998 99.7125 34.2844 102.491L18.7302 104.68L18.5302 105.08C18.5092 105.132 18.4881 105.185 18.4566 105.227L18.4355 105.259C18.3408 105.406 18.2356 105.522 18.0882 105.606C17.12 106.195 15.0363 106.206 12.4475 105.385L11.8371 99.3968L11.7845 99.3757C9.46922 98.4181 7.36445 98.0182 5.48069 98.176L5.40702 98.1865L4.61774 100.586L4.60721 100.565C3.93369 99.6809 3.93369 99.06 4.03893 98.7233C4.04945 98.7022 4.05997 98.6812 4.0705 98.6496L4.03893 98.6706C4.00735 97.8393 6.20683 94.2191 10.6479 87.8101L10.7847 87.6522C15.4257 82.4008 21.5085 79.5068 29.012 78.97C34.6843 78.5596 40.0094 79.3278 45.0082 81.2642L48.3232 58.1855C48.5442 56.67 49.8491 55.5335 51.3751 55.5335H80.1683V55.5124ZM10.6584 87.789L11.8476 99.3863L11.8792 99.3968C12.1738 99.5231 12.479 99.6599 12.7842 99.7967C15.5309 101.081 17.1937 102.386 17.783 103.701L17.1411 104.89L18.7197 104.669L24.15 93.6823L10.6584 87.789ZM49.2598 93.4087L48.5126 103.585L42.714 100.028L45.6396 93.4087H49.2598ZM84.7146 87.1155L84.1568 87.4733L83.9568 87.7785L88.8504 95.4819C89.2819 95.082 89.6923 94.6505 90.0712 94.198L84.7146 87.1155ZM32.2849 53.8707C36.3155 51.5449 41.0302 52.1869 42.8297 55.2914C44.1347 57.5646 43.5348 60.5112 41.5458 62.8475C42.1352 64.0262 42.4719 65.3417 42.4719 66.7203C42.4719 71.9401 37.7573 76.1707 31.9481 76.1707C26.581 76.1707 22.1504 72.561 21.4979 67.899L19.5826 64.5734C17.5831 61.1006 18.7723 56.67 22.2346 54.6705C24.8866 53.134 28.1069 53.4708 30.3695 55.2704C30.9378 54.7652 31.5798 54.2811 32.2849 53.8707Z" fill="white"/>
<path d="M31.3995 52.3337C36.1984 49.566 42.0286 50.3447 44.3649 54.4069C45.8698 57.0168 45.5014 60.2687 43.6492 63.0154L43.5861 63.1101L43.6071 63.1733C44.0176 64.2783 44.228 65.4464 44.2386 66.6461V66.7303C44.2386 71.5397 40.9446 75.6019 36.3457 77.2121L36.1773 77.2752C38.6609 77.5383 41.0814 78.0434 43.4282 78.7906L43.5545 78.8327L46.5643 57.9008C46.9011 55.533 48.9217 53.765 51.3106 53.7334H51.3842H80.1459C80.3669 53.7334 80.5773 53.7439 80.7983 53.7755C83.303 54.1333 85.0394 56.4591 84.6816 58.9637L80.851 85.5996C80.6931 86.673 80.1985 87.6306 79.4723 88.3568L79.4513 88.3778L82.84 86.1889L84.7658 83.1475C85.3867 82.1688 86.3128 81.4321 87.4073 81.0638L87.4599 81.0427H87.4704L87.5125 81.0322H87.5231C89.4279 80.4429 90.9117 80.0535 92.0167 79.8851C92.6376 79.7904 93.1638 79.7483 93.6269 79.7904C93.9321 79.8114 94.2267 79.8746 94.5004 79.9903C94.9108 80.1587 95.2686 80.4218 95.5317 80.8217C95.9106 81.4005 96.0158 82.0846 95.8895 82.7581C95.7948 83.2633 95.5633 83.7368 95.2476 84.1788C94.9845 84.5472 94.6477 84.8945 94.2688 85.2207L94.2478 85.2417L94.6477 86.2415C94.6477 86.252 94.6477 86.252 94.6582 86.2626L94.6687 86.2836C95.6896 89.0198 95.9211 91.0298 95.0897 92.4927C94.7003 93.1767 94.0794 93.6503 93.3006 93.9765C92.9955 94.1028 92.6587 94.208 92.3114 94.2922L92.2377 94.3133L92.1641 94.4185C92.0904 94.5238 92.0062 94.6395 91.9325 94.7448L91.8484 94.85V94.8605C91.7642 95.1341 91.6168 95.3867 91.4063 95.5972L91.3853 95.6182L74.3262 112.025C70.927 115.308 65.6651 115.666 61.8449 112.898L56.0568 108.689L56.0358 108.699C55.8884 108.762 55.7516 108.815 55.6043 108.857L55.5833 108.868H55.5727C55.0465 109.194 54.3625 109.257 53.7521 108.899L53.71 108.878L51.4369 107.489L49.9846 114.109C49.8899 114.53 49.711 114.919 49.4584 115.256L49.4373 115.287L49.048 120.539C49.0164 120.896 48.8901 121.233 48.6796 121.496L48.6691 121.507L53.8363 195.1C53.8468 195.31 53.8258 195.51 53.7837 195.7L53.7732 195.742C53.7311 195.973 53.6679 196.205 53.5837 196.447L53.5627 196.51C53.3206 197.142 52.826 197.72 52.142 198.226L52.0999 198.257V198.289C52.2472 199.225 52.7523 200.078 53.5416 200.646L53.5837 200.678L60.5189 205.519C61.2345 206.024 61.666 206.845 61.666 207.729C61.666 208.97 60.6557 209.981 59.4139 209.981H36.051C35.7143 209.981 35.3986 209.886 35.1249 209.718L35.1144 209.707L35.0828 209.728C34.7882 209.886 34.4409 209.97 34.0831 209.981H34.041H10.6991C9.72042 209.981 8.92061 209.181 8.92061 208.202V197.647L8.91009 197.636C8.43651 197.247 8.0787 196.815 7.82613 196.352L7.79456 196.3C7.66828 196.047 7.57356 195.805 7.49989 195.552C7.47885 195.458 7.4578 195.363 7.43675 195.268V195.279L7.42623 195.258C7.36308 195.068 7.33151 194.858 7.34204 194.637V194.584L11.7094 120.423L11.6568 120.433C10.1308 120.686 8.5628 120.581 7.06842 120.128L6.98423 120.107L6.90004 120.076C1.64865 118.36 -1.22436 112.698 0.50155 107.447L2.66946 100.806L2.65893 100.764C2.26955 99.9856 2.13274 99.2174 2.26955 98.5123V98.4912V98.4597C2.3327 97.5651 2.91151 96.4286 4.11122 94.4501L4.15332 94.3869C5.27937 92.5453 6.95266 90.009 9.19423 86.7677L9.15213 86.8308L9.17318 86.7993C9.2258 86.7151 9.28895 86.6414 9.35209 86.5677L9.36261 86.5572L9.47837 86.4204C14.1404 81.148 20.1706 78.0961 27.4952 77.2647L27.6951 77.2436L27.5373 77.191C23.5803 75.8019 20.5705 72.6131 19.8233 68.6246L19.8022 68.4773L18.0553 65.4464C15.5822 61.1738 17.0134 55.7119 21.2335 53.1862L21.3598 53.1125C24.1381 51.5024 27.4952 51.5234 30.2103 53.0073L30.2629 53.0388L30.2735 53.0283C30.5997 52.7863 30.947 52.5653 31.3048 52.3548L31.3995 52.3337ZM33.8831 115.571L15.698 119.57L15.7611 120.223C15.8242 120.802 15.5927 121.338 15.2139 121.696L15.2033 121.707L10.9201 194.363V194.374C10.9307 194.469 10.9412 194.553 10.9412 194.647V194.668C10.9517 194.69 10.9728 194.721 11.0043 194.763C11.0675 194.826 11.1517 194.9 11.2674 194.984C11.3411 195.037 11.4358 195.1 11.541 195.153C12.1093 195.468 12.4671 196.058 12.4671 196.71V206.424H30.2314L26.1692 203.582C24.2854 202.267 23.1488 200.12 23.1278 197.826V197.752V197.11C23.1278 196.405 23.5382 195.773 24.1802 195.489C24.6011 195.3 24.9273 195.1 25.1378 194.921C25.1904 194.879 25.222 194.837 25.2536 194.816V194.795C25.2325 194.521 25.2641 194.269 25.3483 194.037L25.3588 194.016L28.9054 152.026C29.0843 149.858 32.2519 149.869 32.4414 152.005V152.068L35.0934 194.658L35.1039 194.69C35.1249 194.742 35.1355 194.795 35.146 194.847L35.1565 194.879C35.167 194.932 35.1776 194.942 35.2407 195.016C35.4512 195.247 35.8827 195.51 36.6298 195.773C37.3455 196.026 37.819 196.7 37.819 197.447V206.424H55.5833L51.5211 203.582C49.6373 202.267 48.5007 200.12 48.4797 197.826V197.752V197.268C48.4797 196.594 48.8585 195.984 49.4584 195.679C49.7741 195.521 50.0161 195.353 50.174 195.216C50.1951 195.195 50.2161 195.184 50.2266 195.163V195.153C50.2266 195.121 50.2266 195.1 50.2266 195.068V195.058L45.112 122.18L33.3359 122.222C32.3046 122.222 31.4837 121.349 31.5574 120.328V120.297V120.244C31.631 119.328 32.4098 118.613 33.3254 118.613H45.5751L45.733 116.445H35.7879C35.6196 116.445 35.4512 116.424 35.2828 116.392L35.2197 116.382C34.6724 116.255 34.1988 115.971 33.841 115.582L33.8831 115.571ZM30.4208 176.431L28.8633 194.837C28.8527 194.932 28.8422 195.026 28.8212 195.11L28.8106 195.132V195.142C28.7791 195.447 28.7054 195.742 28.6002 196.058L28.5791 196.11C28.295 196.878 27.6425 197.573 26.7269 198.152V198.173C26.8427 199.152 27.3689 200.036 28.1792 200.625L28.2213 200.657L34.283 204.887V198.604L34.2515 198.583C32.9676 197.92 32.2204 197.099 31.8626 196.131V196.121L31.852 196.1C31.7257 195.879 31.6416 195.626 31.6205 195.353V195.321L30.4208 176.431ZM5.45827 103.753L3.89022 108.552C2.78522 111.941 4.62689 115.592 8.01556 116.697L8.0787 116.718C9.16266 117.055 10.3098 117.108 11.4148 116.866L11.8462 116.771L10.8149 106.679L10.7939 106.668C9.74147 106.258 8.66804 105.742 7.60513 105.132L7.47885 105.058C6.73166 104.616 6.06865 104.185 5.48984 103.764L5.45827 103.753ZM42.902 95.1868H40.892L39.9554 99.4489C39.7133 100.533 38.5873 101.091 37.6296 100.743L37.6086 100.733L37.5875 100.754C37.1245 101.217 36.5351 102.08 35.8616 103.332C35.588 103.827 35.1039 104.164 34.5461 104.248L19.897 106.31L19.8759 106.331L19.8443 106.363L19.8233 106.395C19.6233 106.668 19.3708 106.9 19.0866 107.079L19.0445 107.11C17.9711 107.763 16.382 107.931 14.5403 107.668L14.4982 107.657L15.3507 115.982L34.6829 111.73C35.5985 111.53 36.4404 112.056 36.7351 112.846L36.7456 112.867H46.0697L46.6801 104.511L41.797 101.522C41.0499 101.059 40.7447 100.122 41.0814 99.3226L41.0919 99.291L42.902 95.1868ZM51.4053 57.2905C50.7528 57.2905 50.2056 57.764 50.1109 58.4165L46.7959 81.4953C46.638 82.6318 45.4593 83.3159 44.3964 82.8949C39.6502 81.0533 34.5777 80.3271 29.1685 80.7165C22.9594 81.169 17.8448 83.3054 13.7616 87.136L13.7195 87.1781L24.8853 92.0612C25.8008 92.4611 26.2113 93.545 25.7798 94.4501L25.7693 94.4817L21.8123 102.448L33.157 100.849L33.1886 100.785C33.82 99.712 34.4198 98.8806 35.0092 98.2808L35.0513 98.2387C35.5143 97.7756 35.9879 97.4389 36.5036 97.2389C36.5983 97.2073 36.6825 97.1758 36.7772 97.1442L36.8193 97.1337L37.5138 93.9765V93.966V93.9555L37.5244 93.9239C37.5244 93.9134 37.5244 93.9134 37.5244 93.9028C37.8506 92.5663 39.0503 91.6192 40.4289 91.6192H44.4596L46.3749 87.2728C46.659 86.6414 47.28 86.231 47.964 86.2099H47.9956H49.6268C50.6581 86.2099 51.479 87.0834 51.3948 88.1147L51.1422 91.6192H51.6368C51.8052 91.6192 51.9736 91.6402 52.142 91.6718L52.2051 91.6823C52.2156 91.6823 52.2262 91.6823 52.2262 91.6928L52.2472 91.7034C52.2577 91.7034 52.2682 91.7034 52.2682 91.7139C53.6469 92.0612 54.4993 93.4293 54.1941 94.8184L53.247 99.1332C53.2049 99.3121 53.1417 99.491 53.047 99.6489L53.026 99.6804V99.691C53.047 99.8699 53.0365 100.049 53.0049 100.217L52.9944 100.27L52.2156 103.806L54.7519 105.363C54.815 105.321 54.8992 105.269 54.9834 105.205L55.015 105.184C55.6359 104.69 56.5199 104.669 57.1618 105.142L63.9076 110.046C66.3281 111.804 69.6747 111.572 71.832 109.499L86.5654 95.2815L83.303 90.1458L68.054 99.9856C67.4226 100.396 66.5912 100.354 66.0018 99.8909L65.9703 99.8699L61.5292 96.2707C61.0241 95.8603 60.782 95.2078 60.8978 94.5764C61.003 93.966 61.0346 93.4714 60.9925 93.1136C60.9925 93.103 60.9925 93.0925 60.9925 93.0925V93.0715L55.6359 89.5144C54.1836 88.5462 54.8466 86.3046 56.5725 86.252H56.6251H76.0416C76.694 86.252 77.2413 85.7785 77.336 85.126L81.1772 58.4586C81.2614 57.9008 80.872 57.3747 80.3037 57.2905C80.2511 57.2799 80.209 57.2799 80.1564 57.2799H51.4053V57.2905ZM13.9405 102.427L14.0983 103.985L14.172 104.006C14.6245 104.111 15.056 104.174 15.4559 104.216H15.498C15.519 104.174 15.5296 104.143 15.5506 104.1L15.5717 104.058L15.7085 103.795L15.6874 103.774C15.298 103.364 14.7298 102.911 13.951 102.438L13.9405 102.427ZM6.72113 99.912L6.64746 100.133L6.66851 100.154C7.24732 100.691 8.0787 101.291 9.20475 101.954L9.27842 101.996C9.62571 102.196 9.96247 102.385 10.3098 102.564L10.3939 102.606L10.194 100.659L10.1308 100.638C8.89956 100.207 7.76299 99.9646 6.72113 99.912ZM12.7408 90.6405L13.509 98.186L13.5406 98.1966C15.6769 99.1963 17.2765 100.238 18.3289 101.385L18.3605 101.427L21.7386 94.5869L12.7408 90.6405ZM47.3431 95.1868H46.7853L44.9542 99.3331L46.9432 100.554L47.3431 95.1868ZM9.38366 92.8189L9.36261 92.8505C8.48913 94.1765 7.76299 95.3025 7.1947 96.2391C7.17366 96.2812 7.14208 96.3233 7.12104 96.3654L7.11051 96.376H7.15261C8.00504 96.4391 8.87851 96.5759 9.78356 96.8074H9.79409L9.38366 92.8189ZM77.799 89.4513L77.778 89.4618C77.2413 89.6617 76.6625 89.7775 76.0521 89.7775H62.5185L63.4972 90.43C63.876 90.6826 64.1181 91.0404 64.2233 91.4297L64.2338 91.4508C64.539 92.1454 64.6443 93.0504 64.5601 94.0923V94.1028L67.2331 96.2707L77.799 89.4513ZM90.4382 83.8842L90.3855 83.8947C89.8488 84.042 89.2595 84.2209 88.607 84.4209H88.6175L88.586 84.4314L88.5544 84.4419C88.2492 84.5472 87.9861 84.7576 87.8072 85.0207L87.7862 85.0523L86.6917 86.7887L90.0698 91.2614L90.0909 91.2508C90.3329 91.0719 90.6065 90.9457 90.9117 90.9036H90.9433C91.3327 90.8615 91.6694 90.7773 91.9115 90.672C91.9431 90.6615 91.9641 90.651 91.9957 90.6405L92.0167 90.6299V90.6089V90.5878C92.0378 90.4405 92.0378 90.23 92.0062 89.9775C91.9325 89.3566 91.7115 88.5252 91.3327 87.5149L91.3432 87.5359L90.4276 85.2312C90.2487 84.7682 90.2593 84.3051 90.4382 83.8842ZM41.2919 56.1855C40.0396 54.0281 36.4299 53.5335 33.178 55.4172C32.5887 55.754 32.052 56.1539 31.5784 56.5959C30.9365 57.1957 29.9577 57.2273 29.2632 56.6801C27.5162 55.3015 25.0852 55.1015 23.1278 56.2276C20.5073 57.743 19.6128 61.0896 21.1282 63.71L23.0436 67.0355C23.1593 67.2355 23.233 67.4565 23.2646 67.6775C23.7908 71.4661 27.4846 74.4127 31.9467 74.4127C36.8193 74.4127 40.692 70.9293 40.692 66.7409C40.692 65.6674 40.4395 64.6256 39.9554 63.6574C39.6397 63.0154 39.7239 62.2577 40.1869 61.7105C41.7655 59.8478 42.1549 57.6904 41.2919 56.1855Z" fill="white"/>
<path d="M177.636 18.0566C178.615 18.0566 179.414 18.8565 179.414 19.8352V108.73H181.751C182.719 108.73 183.508 109.509 183.529 110.477V110.508V118.37C183.529 119.348 182.729 120.148 181.751 120.148H82.932C81.9533 120.148 81.1535 119.348 81.1535 118.37V110.508C81.1535 109.53 81.9533 108.73 82.932 108.73H85.1736V77.6004L82.2164 74.7485C81.9954 74.538 81.848 74.2854 81.7639 74.0223V74.0118L81.7428 73.9803C81.6586 73.8645 81.5744 73.7592 81.5008 73.6435L81.4797 73.6224L81.4376 73.6119C81.1535 73.5382 80.8799 73.4541 80.6273 73.3488L80.5536 73.3172C79.8169 73.0121 79.2276 72.5595 78.8488 71.9071C78.07 70.5284 78.2805 68.6868 79.2171 66.1821C79.2171 66.1716 79.2276 66.161 79.2276 66.1505L79.5328 65.3823L79.5118 65.3612C79.2171 65.0981 78.954 64.814 78.7435 64.5299L78.7119 64.4772C78.4068 64.0563 78.1963 63.6038 78.1016 63.1302C77.9753 62.4882 78.07 61.8252 78.4488 61.2569C78.7014 60.8781 79.0487 60.615 79.4486 60.4466C79.7117 60.3414 79.9853 60.2782 80.28 60.2572C80.7009 60.2256 81.1745 60.2572 81.7428 60.3414C82.5952 60.4782 83.7213 60.7518 85.1104 61.1622L85.1841 61.1833V19.8352C85.1841 18.867 85.9629 18.0777 86.931 18.0566H86.9626H177.636ZM175.857 21.6137H88.7411V64.3825C88.7411 66.1295 86.489 66.824 85.5103 65.4033L85.4788 65.3612C85.2893 65.0666 85.0052 64.8561 84.6684 64.7509C84.2475 64.6246 83.8476 64.5088 83.4898 64.4036L83.4687 64.393V64.4141C83.5213 64.7193 83.5003 65.0455 83.3845 65.3612L83.374 65.3928L82.5531 67.4555L82.5321 67.5081C82.2164 68.35 82.0375 69.0446 81.9638 69.5708V69.6129C81.9428 69.7918 81.9428 69.9391 81.9428 70.0443V70.0549L81.9638 70.0654C82.1532 70.1391 82.4163 70.2022 82.711 70.2443L82.7636 70.2548C83.0162 70.2864 83.2582 70.3706 83.4792 70.4969L83.4898 70.5074L85.5419 67.7607C86.5627 66.4136 88.6991 67.1187 88.7411 68.7815V68.8341V70.8442C88.7411 71.1809 88.6464 71.5177 88.4675 71.8018L86.889 74.2854L88.2044 75.5588C88.5412 75.8851 88.7411 76.3271 88.7517 76.8006V76.8427V110.508C88.7517 111.487 87.9519 112.287 86.9731 112.287H84.721V116.591H179.983V112.287H177.646C176.678 112.287 175.889 111.508 175.868 110.54V110.508L175.857 21.6137Z" fill="white"/>
<path d="M177.826 19.8359H87.1523V110.509H177.826V19.8359Z" fill="#FFA971"/>
<path fill-rule="evenodd" clip-rule="evenodd" d="M113.049 70.154L104.338 77.2038L88.5186 67.025L83.6374 73.467L98.4724 87.7652C101.25 90.4385 105.544 90.7388 108.666 88.478L119.568 80.5686C122.435 78.4904 123.197 74.5349 121.308 71.5333C119.655 68.9175 116.197 68.1271 113.571 69.7791C113.406 69.8835 113.227 70.0188 113.049 70.154Z" fill="#FFBAFF"/>
<path d="M104.982 79.2747C104.855 79.2764 104.735 79.1941 104.68 79.0637L104.044 77.2997C103.982 77.1371 104.068 76.9532 104.231 76.8908C104.394 76.8283 104.577 76.915 104.64 77.0776L105.276 78.8417C105.339 79.0043 105.252 79.1881 105.089 79.2506C105.056 79.2694 105.014 79.2769 104.982 79.2747Z" fill="#312A46"/>
<path fill-rule="evenodd" clip-rule="evenodd" d="M89.2025 67.6218L87.1792 64.421C86.7614 63.7588 86.1203 63.2709 85.3769 63.0395C82.1648 62.0554 80.4122 61.7746 80.1167 62.2286C79.6319 62.9754 80.8803 64.4341 82.7227 65.0904C81.3711 66.7682 81.0632 68.4557 81.7773 70.1619C82.4914 71.8682 83.5081 73.3212 84.8055 74.5302L89.2025 67.6218Z" fill="#FFBAFF"/>
<path fill-rule="evenodd" clip-rule="evenodd" d="M81.0763 66.8C80.3152 68.8457 80.1476 70.2571 80.5873 71.0289C81.2469 72.1866 84.5817 72.2774 85.0031 71.6932C85.2823 71.2991 85.3274 70.939 85.1428 70.6034C85.6109 70.4317 85.8964 70.1786 85.9938 69.8303C86.0913 69.4821 86.021 69.1743 85.7871 68.8974C86.4732 68.7536 86.762 68.3638 86.6342 67.7193C86.4264 66.7629 83.1167 65.8653 83.4064 64.0244L82.4355 63.3848L81.0763 66.8Z" fill="#FFBAFF"/>
<path d="M83.8687 72.4555C83.3035 72.4573 82.7223 72.3137 82.265 72.2023C82.1603 72.1787 82.0556 72.1551 81.9744 72.1305C81.8078 72.0908 81.6967 71.9262 81.7364 71.7596C81.776 71.5929 81.9406 71.4819 82.1073 71.5215C82.2024 71.5408 82.3071 71.5644 82.4214 71.5922C83.0357 71.739 84.0603 71.9994 84.5734 71.6749C84.7476 71.5681 84.8578 71.3983 84.9082 71.1558C84.9478 70.9891 85.1125 70.8781 85.2834 70.9081C85.4501 70.9478 85.5611 71.1124 85.531 71.2833C85.441 71.6925 85.2335 72.0033 84.9128 72.2061C84.6103 72.394 84.2459 72.4622 83.8687 72.4555Z" fill="#312A46"/>
<path d="M85.3638 69.2271C84.4075 69.2276 83.2955 68.6979 82.8694 68.3354C82.7369 68.2189 82.7232 68.0169 82.8397 67.8845C82.9563 67.7521 83.1583 67.7383 83.2907 67.8549C83.7317 68.2355 85.0564 68.7792 85.7895 68.5297C86.0354 68.4433 86.184 68.2906 86.2376 68.0149C86.2772 67.8483 86.4419 67.7372 86.6085 67.7769C86.7752 67.8165 86.8862 67.9812 86.8466 68.1478C86.7362 68.6286 86.4357 68.9671 85.9761 69.1196C85.7912 69.1986 85.5807 69.2316 85.3638 69.2271Z" fill="#312A46"/>
<path d="M84.9165 70.8023C83.9602 70.8028 82.8482 70.2731 82.4221 69.9106C82.2897 69.7941 82.2759 69.5921 82.3925 69.4597C82.509 69.3273 82.711 69.3135 82.8434 69.4301C83.2845 69.8107 84.6091 70.3544 85.3423 70.1049C85.5881 70.0185 85.7367 69.8658 85.7903 69.5901C85.83 69.4235 85.9946 69.3124 86.1613 69.3521C86.3279 69.3917 86.4389 69.5564 86.3993 69.723C86.2889 70.2038 85.9884 70.5423 85.5289 70.6948C85.344 70.7738 85.1377 70.7971 84.9165 70.8023Z" fill="#312A46"/>
<path fill-rule="evenodd" clip-rule="evenodd" d="M130.078 46.3188C132.572 43.551 138.634 42.9827 143.222 46.9713C147.811 50.9598 146.779 54.8852 155.893 57.4741C165.006 60.0629 167.006 69.0082 158.808 74.007C150.61 79.0058 133.33 65.0512 130.078 60.3155C126.826 55.5798 127.573 49.076 130.078 46.3188Z" fill="#DA6A54"/>
<path fill-rule="evenodd" clip-rule="evenodd" d="M114.598 99.1275V69.5661C118.176 65.8827 122.427 63.8727 127.342 63.5464C134.719 63.0518 148.432 66.6194 148.432 75.1016C148.432 80.7634 146.232 88.8036 141.833 99.2327L114.598 99.1275Z" fill="#00A874"/>
<path d="M123.075 79.0082C123.065 79.0082 123.044 79.0082 123.033 79.0082C119.76 78.5978 118.119 77.0403 118.171 74.3883C118.171 74.2094 118.318 74.0726 118.497 74.0831C118.676 74.0831 118.813 74.2304 118.803 74.4093C118.76 76.7246 120.16 78.019 123.107 78.3979C123.275 78.4189 123.401 78.5768 123.38 78.7557C123.37 78.8925 123.233 79.0082 123.075 79.0082Z" fill="#312A46"/>
<path d="M135.43 81.3453C135.419 81.3453 135.398 81.3453 135.388 81.3453C132.115 80.9244 130.484 79.3774 130.536 76.7149C130.536 76.5465 130.684 76.4097 130.852 76.4097C130.852 76.4097 130.852 76.4097 130.863 76.4097C131.042 76.4097 131.178 76.557 131.168 76.7359C131.126 79.0511 132.525 80.3456 135.472 80.7244C135.64 80.7455 135.767 80.9033 135.746 81.0822C135.725 81.2296 135.588 81.3453 135.43 81.3453Z" fill="#312A46"/>
<path d="M133.203 61.2742C137.981 61.2742 141.854 57.6792 141.854 53.2445C141.854 48.8099 137.981 45.2148 133.203 45.2148C128.426 45.2148 124.553 48.8099 124.553 53.2445C124.553 57.6792 128.426 61.2742 133.203 61.2742Z" fill="#FFBAFF"/>
<path fill-rule="evenodd" clip-rule="evenodd" d="M134.636 51.6457C136.404 52.9927 138.824 53.6557 141.908 53.6241C142.202 52.7191 141.592 49.0147 138.624 46.8994C135.425 44.6263 132.205 45.2472 131.289 45.4156C131.752 48.2254 132.868 50.2986 134.636 51.6457Z" fill="#DA6A54"/>
<path fill-rule="evenodd" clip-rule="evenodd" d="M127.44 63.5461C130.534 63.3357 134.754 63.8513 138.606 65.1247C139.679 65.4825 135.364 67.6399 132.365 67.3242C129.524 67.0295 125.956 63.6409 127.44 63.5461Z" fill="#FFBAFF"/>
<path fill-rule="evenodd" clip-rule="evenodd" d="M148.432 110.504C146.748 105.874 144.391 101.78 141.528 99.2334H114.545C112.935 101.517 111.725 105.274 110.936 110.504H148.432Z" fill="#312A46"/>
<path fill-rule="evenodd" clip-rule="evenodd" d="M146.489 69.5887C151.866 75.8819 155.655 81.5122 157.865 86.4689C160.538 92.4569 162.569 100.466 163.969 110.505H153.34C152.213 102.476 150.572 96.1192 148.425 91.4151C146.71 87.6686 143.879 83.2275 139.943 78.0919C138.08 75.6714 138.038 72.3038 139.848 69.8412C141.227 67.9575 143.879 67.5471 145.762 68.9257C146.025 69.1151 146.268 69.3466 146.489 69.5887Z" fill="#FFBAFF"/>
<path d="M181.94 110.509H83.1211V118.37H181.94V110.509Z" fill="#FF893D"/>
<path d="M181.992 118.423H83.0684V110.456H181.992V118.423ZM83.1736 118.317H181.887V110.561H83.1736V118.317Z" fill="#979797"/>
<path d="M134.489 55.7948C134.331 55.7948 134.184 55.6685 134.173 55.5001C134.163 55.3212 134.289 55.1739 134.468 55.1634C137.677 54.9108 140.045 54.4162 141.498 53.7005C141.655 53.6269 141.845 53.69 141.919 53.8479C141.992 54.0057 141.929 54.1952 141.771 54.2688C140.245 55.0266 137.804 55.5422 134.51 55.7948C134.499 55.7843 134.489 55.7948 134.489 55.7948Z" fill="#312A46"/>
<path d="M127.278 55.4796C127.268 55.4796 127.268 55.4796 127.278 55.4796C125.815 55.448 124.837 55.1218 124.3 54.4693C124.184 54.3325 124.205 54.1325 124.342 54.0273C124.479 53.9115 124.679 53.9326 124.784 54.0694C125.195 54.564 126.036 54.8271 127.278 54.8481C127.457 54.8481 127.594 54.9955 127.583 55.1744C127.583 55.3428 127.447 55.4796 127.278 55.4796Z" fill="#312A46"/>
<path fill-rule="evenodd" clip-rule="evenodd" d="M26.5869 193.717C26.9868 194.043 27.0604 194.548 26.8184 195.222C26.45 196.232 23.5244 198.347 16.484 197.768C9.44355 197.19 9.16993 195.106 9.07521 194.517C9.01207 194.127 9.55931 193.201 10.7169 191.759L23.3771 190.654L26.5869 193.717Z" fill="#312A46"/>
<path fill-rule="evenodd" clip-rule="evenodd" d="M51.561 194.084C51.9819 194.421 52.0556 194.926 51.803 195.6C51.4241 196.61 48.3828 198.715 41.0582 198.105C33.7231 197.494 33.4179 195.4 33.3232 194.811C33.26 194.421 33.8178 193.506 35.0175 192.064L48.1933 191.022L51.561 194.084Z" fill="#312A46"/>
<path fill-rule="evenodd" clip-rule="evenodd" d="M24.8298 190.286V198.031C24.8298 199.778 25.6822 201.41 27.1134 202.399L34.0486 207.24C34.2907 207.408 34.438 207.692 34.438 207.987C34.438 208.25 34.2276 208.461 33.9645 208.461H10.6016V190.275H24.8298V190.286Z" fill="#5340FF"/>
<path fill-rule="evenodd" clip-rule="evenodd" d="M50.1911 189.729V197.475C50.1911 199.222 51.0435 200.853 52.4748 201.842L59.41 206.683C59.652 206.852 59.7994 207.136 59.7994 207.43C59.7994 207.693 59.5889 207.904 59.3258 207.904H35.9629V189.719H50.1911V189.729Z" fill="#5340FF"/>
<path fill-rule="evenodd" clip-rule="evenodd" d="M33.2801 120.113L26.9974 194.411C25.282 192.412 22.3985 191.412 18.3573 191.412C14.3162 191.412 11.2011 192.412 9.0332 194.411L13.4111 120.113H33.2801Z" fill="#FFBAFF"/>
<path fill-rule="evenodd" clip-rule="evenodd" d="M46.7201 120.113L51.9715 194.937C46.6885 192.033 40.4584 192.033 33.2812 194.937L28.6191 120.176L46.7201 120.113Z" fill="#FFBAFF"/>
<path d="M31.3652 140.888C31.3546 140.888 31.3546 140.888 31.3441 140.888C31.1652 140.877 31.0389 140.719 31.0494 140.551L32.0913 126.407L35.7431 123.871C35.8904 123.776 36.0798 123.808 36.1851 123.955C36.2798 124.102 36.2482 124.292 36.1009 124.397L32.6912 126.754L31.6703 140.593C31.6598 140.761 31.523 140.888 31.3652 140.888Z" fill="#312A46"/>
<path fill-rule="evenodd" clip-rule="evenodd" d="M49.8854 83.3225C43.5079 79.6707 36.5201 78.1132 28.943 78.6604C21.3553 79.2077 15.2304 82.1544 10.5684 87.511L13.9044 120.114H47.1807L49.8854 83.3225Z" fill="#5340FF"/>
<path d="M29.9335 89.5938H24.5032C24.3243 89.5938 24.1875 89.457 24.1875 89.2781C24.1875 89.0992 24.3243 88.9624 24.5032 88.9624H29.9335C30.1124 88.9624 30.2492 89.0992 30.2492 89.2781C30.2492 89.457 30.1019 89.5938 29.9335 89.5938Z" fill="#312A46"/>
<path fill-rule="evenodd" clip-rule="evenodd" d="M22.1424 54.4018C18.6695 56.4014 17.4803 60.8424 19.4904 64.3048L21.6162 67.9881L34.1816 60.7372L32.0558 57.0538C30.0458 53.5915 25.6047 52.4023 22.1424 54.4018Z" fill="#F27A5F"/>
<path d="M27.7723 55.2651C26.5808 55.2651 25.6149 56.0661 25.6149 57.0542C25.6149 58.0423 26.5808 58.8432 27.7723 58.8432C28.9638 58.8432 29.9297 58.0423 29.9297 57.0542C29.9297 56.0661 28.9638 55.2651 27.7723 55.2651Z" fill="white"/>
<path d="M38.6954 53.5893C34.6688 51.2644 29.9486 51.9014 28.1527 55.012C26.3567 58.1226 28.165 62.5289 32.1917 64.8537C36.2184 67.1786 40.9385 66.5416 42.7345 63.4311C44.5304 60.3205 42.7221 55.9142 38.6954 53.5893Z" fill="#F27A5F"/>
<path d="M31.8453 57.001C26.0332 57.001 21.3215 61.2321 21.3215 66.4514C21.3215 71.6707 26.0332 75.9018 31.8453 75.9018C37.6575 75.9018 42.3691 71.6707 42.3691 66.4514C42.3691 61.2321 37.6575 57.001 31.8453 57.001Z" fill="#7EE0EC"/>
<path fill-rule="evenodd" clip-rule="evenodd" d="M35.6113 57.675C34.801 61.7161 32.9804 64.3997 30.1495 65.7257C27.3186 67.0412 24.3719 67.1464 21.32 66.0204C21.5936 62.9053 23.088 60.4533 25.7926 58.6747C28.4972 56.8962 31.7701 56.5594 35.6113 57.675Z" fill="#312A46"/>
<path d="M34.1091 69.9555C33.9828 69.9555 33.867 69.945 33.7407 69.9239C33.1093 69.7976 32.5621 69.3451 32.1201 68.5874C32.0359 68.44 32.0885 68.2401 32.2358 68.1559C32.3831 68.0717 32.5831 68.1243 32.6673 68.2717C33.0146 68.8715 33.4145 69.2188 33.867 69.303C34.3827 69.4082 35.0141 69.1767 35.7297 68.619C35.8665 68.5137 36.0665 68.5348 36.1717 68.6716C36.277 68.8084 36.2559 69.0083 36.1191 69.1136C35.393 69.6713 34.7194 69.9555 34.1091 69.9555Z" fill="#312A46"/>
<path fill-rule="evenodd" clip-rule="evenodd" d="M18.0127 105.322C16.5716 106.193 12.6154 105.785 8.28816 103.25C3.96089 100.715 3.7626 99.0625 3.9683 98.4277C4.10664 98.0078 4.97227 97.2784 6.56519 96.2394L17.3985 99.0495C18.7617 102.641 18.9754 104.736 18.0127 105.322Z" fill="#312A46"/>
<path fill-rule="evenodd" clip-rule="evenodd" d="M10.5657 87.5042C6.1233 93.9144 3.92514 97.5367 3.95775 98.3648C4.84323 97.8745 5.78725 97.6989 6.80328 97.8442C11.7037 98.5693 17.4254 101.09 18.3536 104.963L24.0667 93.3975L10.5657 87.5042Z" fill="#5340FF"/>
<path d="M18.7094 104.933C18.6663 104.937 18.6294 104.928 18.5889 104.91C18.4307 104.844 18.3524 104.66 18.418 104.501L22.3829 94.7485C22.4485 94.5902 22.6328 94.512 22.791 94.5775C22.9493 94.6431 23.0276 94.8274 22.962 94.9857L18.9971 104.739C18.9504 104.856 18.8326 104.933 18.7094 104.933Z" fill="#312A46"/>
<path fill-rule="evenodd" clip-rule="evenodd" d="M54.6226 106.905C56.3064 106.947 59.0005 103.221 61.0947 98.8749C63.189 94.5286 62.8417 92.066 62.3471 91.624C62.0208 91.3293 60.9053 91.1294 59.0005 91.0347L51.0234 98.8854C52.2968 104.2 53.4965 106.884 54.6226 106.905Z" fill="#312A46"/>
<path fill-rule="evenodd" clip-rule="evenodd" d="M57.3277 90.3214L67.013 98.1787L84.6179 86.8307L90.0469 94.015L73.0095 110.461C70.2328 113.145 65.9285 113.446 62.8053 111.175L50.0682 101.917C46.8678 99.5979 46.0211 95.1842 48.1293 91.8402C49.9616 88.927 53.8146 88.0563 56.7278 89.8886C56.927 90.0224 57.1375 90.1659 57.3277 90.3214Z" fill="#7EE0EC"/>
<path d="M66.3085 100.453C66.277 100.456 66.2343 100.448 66.2013 100.429C66.0387 100.367 65.9527 100.194 66.0145 100.02L66.7214 98.0615C66.7839 97.8989 66.9572 97.8129 67.1304 97.8747C67.293 97.9371 67.3789 98.1105 67.3172 98.2836L66.6102 100.242C66.556 100.373 66.4352 100.455 66.3085 100.453Z" fill="#312A46"/>
<path fill-rule="evenodd" clip-rule="evenodd" d="M83.8531 87.497L86.1799 83.8108C86.5978 83.1486 87.2283 82.6614 87.9822 82.4293C91.6377 81.2981 93.6408 80.9787 93.961 81.4838C94.5041 82.3109 93.1093 83.9381 91.062 84.6826C92.5641 86.5503 92.9069 88.4358 92.1108 90.3271C91.3147 92.2184 90.1838 93.8482 88.7377 95.1942L83.8531 87.497Z" fill="#7EE0EC"/>
<path fill-rule="evenodd" clip-rule="evenodd" d="M92.9077 86.5891C93.7576 88.8602 93.9371 90.4277 93.4462 91.2914C92.7097 92.5869 88.9977 92.6844 88.5367 92.0372C88.2266 91.5993 88.174 91.1965 88.3885 90.8245C87.8691 90.6411 87.5472 90.3581 87.4423 89.9671C87.3416 89.5857 87.414 89.2309 87.6681 88.9219C86.8976 88.7696 86.5874 88.3317 86.728 87.6125C86.941 86.5385 90.6322 85.5402 90.3188 83.491L91.3965 82.7808L92.9077 86.5891Z" fill="#7EE0EC"/>
<path d="M89.7868 92.8515C89.3722 92.8518 88.9704 92.7773 88.6497 92.5745C88.3012 92.361 88.0809 92.0213 87.9833 91.5694C87.9437 91.4027 88.0504 91.2285 88.231 91.1942C88.3977 91.1545 88.5719 91.2613 88.6062 91.4418C88.6641 91.7271 88.7967 91.9215 88.9891 92.0432C89.5803 92.4136 90.6903 92.1382 91.4147 91.954C91.5386 91.9218 91.6529 91.894 91.7576 91.8704C91.9243 91.8307 92.0985 91.9375 92.1285 92.1084C92.1682 92.2751 92.0614 92.4493 91.8905 92.4794C91.7954 92.4987 91.6811 92.5265 91.5572 92.5587C91.0614 92.6872 90.4087 92.8511 89.7868 92.8515Z" fill="#312A46"/>
<path d="M88.1282 89.258C87.8877 89.2614 87.6537 89.2273 87.44 89.1612C86.9387 88.9927 86.6158 88.6296 86.4979 88.1061C86.4583 87.9395 86.565 87.7652 86.7359 87.7352C86.9026 87.6956 87.0768 87.8023 87.1069 87.9732C87.1776 88.2874 87.3391 88.4689 87.6362 88.567C88.472 88.84 89.9643 88.2332 90.4641 87.8033C90.5965 87.6867 90.7985 87.7005 90.9054 87.8372C91.022 87.9696 91.0082 88.1716 90.8715 88.2785C90.4155 88.6774 89.1785 89.2627 88.1282 89.258Z" fill="#312A46"/>
<path d="M88.6202 91.0081C88.3798 91.0115 88.1458 90.9775 87.932 90.9114C87.4307 90.7429 87.1078 90.3798 86.9899 89.8563C86.9503 89.6896 87.057 89.5154 87.228 89.4853C87.3946 89.4457 87.5689 89.5524 87.5989 89.7234C87.6696 90.0375 87.8311 90.219 88.1282 90.3171C88.964 90.5901 90.4563 89.9833 90.9465 89.5577C91.0789 89.4411 91.2809 89.4549 91.3878 89.5916C91.5044 89.724 91.4906 89.926 91.3539 90.0329C90.9075 90.4275 89.6802 91.0085 88.6202 91.0081Z" fill="#312A46"/>
<path fill-rule="evenodd" clip-rule="evenodd" d="M49.8872 83.2788L62.4211 91.6137C55.8753 94.634 53.2548 99.7907 54.5493 107.052L42.6152 99.7381L49.8872 83.2788Z" fill="#5340FF"/>
<path d="M47.8453 109.474C47.8348 109.474 47.8243 109.474 47.8138 109.474C47.6349 109.464 47.5086 109.306 47.5296 109.127L48.4873 98.3401C48.4978 98.1612 48.6557 98.035 48.8346 98.056C49.0135 98.0665 49.1398 98.2244 49.1187 98.4033L48.1611 109.18C48.14 109.348 48.0032 109.474 47.8453 109.474Z" fill="#312A46"/>
<path fill-rule="evenodd" clip-rule="evenodd" d="M5.33009 97.8863L2.1098 107.716C0.699603 112.041 3.05694 116.692 7.37171 118.103C8.77138 118.555 10.2658 118.639 11.697 118.324L39.2484 112.272L36.4596 101.896L17.0536 104.622L17.6956 103.432C17.1062 102.117 15.433 100.812 12.6968 99.528C9.96057 98.2441 7.49799 97.6864 5.33009 97.8863Z" fill="#7EE0EC"/>
<path fill-rule="evenodd" clip-rule="evenodd" d="M49.6063 93.1221H40.3558C39.7875 93.1221 39.2929 93.522 39.1666 94.0797L34.9255 113.359C34.8308 113.812 35.115 114.264 35.5675 114.359C35.6306 114.37 35.6832 114.38 35.7464 114.38H44.9968C45.5651 114.38 46.0597 113.98 46.186 113.423L50.4271 94.1429C50.5218 93.6904 50.2377 93.2378 49.7852 93.1431C49.722 93.1326 49.6694 93.1221 49.6063 93.1221Z" fill="#FFA971"/>
<path fill-rule="evenodd" clip-rule="evenodd" d="M51.5645 93.1221H42.314C41.7458 93.1221 41.2511 93.522 41.1249 94.0797L36.8838 113.359C36.789 113.812 37.0732 114.264 37.5257 114.359C37.5888 114.37 37.6415 114.38 37.7046 114.38H46.9656C47.5339 114.38 48.0285 113.98 48.1548 113.423L52.3959 94.1429C52.4906 93.6904 52.2064 93.2378 51.7539 93.1431C51.6908 93.1326 51.6276 93.1221 51.5645 93.1221Z" fill="#FF893D"/>
<path fill-rule="evenodd" clip-rule="evenodd" d="M33.9542 102.653C35.5775 99.5565 36.8555 98.1985 37.8107 98.5857C38.7556 98.9748 38.9108 100.219 38.2558 102.322C43.0915 101.384 45.9062 101.166 46.7243 101.684C47.941 102.463 47.5359 104.105 43.8982 104.747C44.6474 105.299 44.857 106.063 44.5325 107.071C44.9987 108.079 44.9712 108.832 44.4517 109.34C44.2912 110.491 43.4382 111.411 42.3055 111.653L32.539 113.717L33.9542 102.653Z" fill="#7EE0EC"/>
<path d="M40.7536 107.94C40.7103 107.937 40.6566 107.936 40.6152 107.943C40.4439 107.941 40.3006 107.795 40.3025 107.624C40.3043 107.453 40.4501 107.31 40.6214 107.311C42.5094 107.353 44.2811 106.431 44.2896 106.419C44.4463 106.338 44.6389 106.4 44.7182 106.546C44.7992 106.703 44.737 106.896 44.5907 106.975C44.5218 107.008 42.7623 107.938 40.7536 107.94Z" fill="#312A46"/>
<path d="M40.6286 110.431C40.5853 110.428 40.5316 110.427 40.4902 110.434C40.3189 110.432 40.1756 110.287 40.1775 110.115C40.1793 109.944 40.3251 109.801 40.4964 109.803C42.3844 109.844 44.1561 108.922 44.1646 108.91C44.3213 108.829 44.5139 108.891 44.5932 109.038C44.6742 109.194 44.612 109.387 44.4657 109.466C44.3986 109.51 42.6269 110.432 40.6286 110.431Z" fill="#312A46"/>
<path fill-rule="evenodd" clip-rule="evenodd" d="M80.0717 55.2285H51.3101C49.7736 55.2285 48.4687 56.3546 48.2582 57.8805L44.4275 84.5163C44.2065 86.0528 45.2694 87.4735 46.8059 87.6945C46.9427 87.7156 47.069 87.7261 47.2058 87.7261H75.9569C77.4934 87.7261 78.7983 86.6 79.0088 85.0741L82.8395 58.4383C83.0605 56.9018 81.9976 55.4811 80.4611 55.2601C80.3348 55.239 80.198 55.2285 80.0717 55.2285Z" fill="white"/>
<path d="M56.8891 67.4251H56.626C54.6054 67.4251 52.8479 65.9833 52.448 63.9943C52.1218 62.3842 53.1742 60.8161 54.7738 60.4899C54.9632 60.4478 55.1632 60.4268 55.3526 60.4268H55.6157C55.7946 60.4268 55.9314 60.5636 55.9314 60.7425C55.9314 60.9214 55.7946 61.0582 55.6157 61.0582H55.3526C55.1947 61.0582 55.0474 61.0687 54.8896 61.1003C53.6267 61.3529 52.8058 62.5947 53.0584 63.8575C53.3952 65.5519 54.8896 66.7831 56.6155 66.7831H56.8786C57.0364 66.7831 57.1838 66.7726 57.3416 66.7411C58.6045 66.4885 59.4253 65.2467 59.1728 63.9838C59.1412 63.8154 59.2464 63.647 59.4253 63.6155C59.5937 63.5839 59.7621 63.6891 59.7937 63.868C60.1199 65.4782 59.0675 67.0462 57.4679 67.3725C57.289 67.4041 57.089 67.4251 56.8891 67.4251Z" fill="#312A46"/>
<path d="M56.087 65.2774C56.0028 65.2774 55.9186 65.2458 55.866 65.1826L54.54 63.8566C54.4137 63.7304 54.4137 63.5304 54.54 63.4146C54.6663 63.2884 54.8663 63.2884 54.982 63.4146L56.0765 64.5196L59.3178 61.2783C59.4441 61.152 59.6441 61.152 59.7598 61.2783C59.8861 61.4046 59.8861 61.6045 59.7598 61.7203L56.308 65.1826C56.2554 65.2458 56.1712 65.2774 56.087 65.2774Z" fill="#312A46"/>
<path d="M55.1117 82.3055H54.8486C52.8281 82.3055 51.0706 80.8637 50.6707 78.8747C50.3444 77.2646 51.3968 75.6965 52.9965 75.3703C53.1859 75.3282 53.3858 75.3071 53.5753 75.3071H53.8384C54.0173 75.3071 54.1541 75.4439 54.1541 75.6228C54.1541 75.8017 54.0173 75.9386 53.8384 75.9386H53.5753C53.4174 75.9386 53.2701 75.9491 53.1122 75.9807C51.8494 76.2332 51.0285 77.475 51.2811 78.7379C51.6178 80.4322 53.1122 81.6635 54.8381 81.6635H55.1012C55.2591 81.6635 55.4064 81.653 55.5643 81.6214C56.8376 81.3794 57.6585 80.1376 57.4059 78.8747C57.3744 78.7063 57.4796 78.5379 57.6585 78.5064C57.8269 78.4748 57.9953 78.58 58.0268 78.7589C58.3531 80.3691 57.3007 81.9371 55.7011 82.2634C55.5116 82.2844 55.3117 82.3055 55.1117 82.3055Z" fill="#312A46"/>
<path d="M54.3116 80.1585C54.2274 80.1585 54.1433 80.1269 54.0906 80.0638L52.7646 78.7378C52.6384 78.6115 52.6384 78.4115 52.7646 78.2958C52.8909 78.1695 53.0909 78.1695 53.2066 78.2958L54.3011 79.4008L57.5425 76.1489C57.6687 76.0226 57.8687 76.0226 57.9845 76.1489C58.1107 76.2752 58.1107 76.4752 57.9845 76.5909L54.5326 80.0533C54.48 80.1164 54.3958 80.1585 54.3116 80.1585Z" fill="#312A46"/>
<path d="M76.6721 64.7418H64.4329C64.254 64.7418 64.1172 64.605 64.1172 64.4261C64.1172 64.2472 64.254 64.1104 64.4329 64.1104H76.6616C76.8405 64.1104 76.9773 64.2472 76.9773 64.4261C76.9773 64.605 76.8405 64.7418 76.6721 64.7418Z" fill="#312A46"/>
<path d="M74.7991 79.6222H62.5599C62.381 79.6222 62.2441 79.4853 62.2441 79.3064C62.2441 79.1275 62.381 78.9907 62.5599 78.9907H74.7991C74.978 78.9907 75.1148 79.1275 75.1148 79.3064C75.1148 79.4853 74.9674 79.6222 74.7991 79.6222Z" fill="#312A46"/>
<path d="M28.4722 69.3807C28.4616 69.3807 28.4511 69.3807 28.4511 69.3807C25.1572 69.1176 22.7156 68.602 21.1897 67.8548C21.0318 67.7811 20.9687 67.5917 21.0423 67.4338C21.116 67.276 21.3054 67.2128 21.4633 67.2865C22.9156 68.0021 25.2834 68.4967 28.4932 68.7493C28.6721 68.7598 28.7984 68.9177 28.7879 69.0861C28.7668 69.2544 28.63 69.3807 28.4722 69.3807Z" fill="#312A46"/>
<path d="M39.427 69.6329C39.2587 69.6329 39.1113 69.4961 39.1113 69.3278C39.1113 69.1488 39.2481 69.012 39.4165 69.0015C40.6583 68.9805 41.5002 68.7174 41.9107 68.2228C42.0264 68.0859 42.2264 68.0754 42.3527 68.1807C42.4895 68.2964 42.5 68.4964 42.3948 68.6227C41.858 69.2751 40.8899 69.6014 39.427 69.6329Z" fill="#312A46"/>
<path fill-rule="evenodd" clip-rule="evenodd" d="M194.728 128.778H217.376V160.402H217.47V128.778H236.655V208.222H173.396V160.402H194.728V128.778ZM182.184 201.203H176.848V205.791H182.184V201.203ZM200.622 155.824H197.065V158.823H200.622V155.824Z" fill="white"/>
<path d="M217.374 126.999C217.384 126.999 217.395 126.999 217.405 126.999H217.416H217.426H217.458H236.643C237.621 126.999 238.421 127.798 238.421 128.777V208.221C238.421 209.2 237.621 210 236.643 210H173.384C172.405 210 171.605 209.2 171.605 208.221V160.401C171.605 159.422 172.405 158.623 173.384 158.623H192.948V128.777C192.948 127.809 193.727 127.02 194.695 126.999H194.726H217.374ZM175.163 206.359V206.443H175.194L175.184 206.422C175.184 206.401 175.173 206.38 175.163 206.359ZM234.864 130.556H219.236V160.401C219.236 161.369 218.458 162.159 217.489 162.18H217.458H217.363C216.384 162.18 215.585 161.38 215.585 160.401V130.556H196.505V154.129L196.526 154.118C196.684 154.066 196.863 154.034 197.042 154.034H197.073H200.62C201.598 154.034 202.398 154.834 202.398 155.813V158.812C202.398 159.791 201.598 160.591 200.62 160.591H197.063C196.873 160.591 196.694 160.559 196.515 160.506L196.494 160.496V160.527C196.431 161.443 195.673 162.159 194.747 162.18H194.716H175.163V200.634C175.394 199.939 176.047 199.445 176.815 199.434H176.846H182.182C183.161 199.434 183.96 200.234 183.96 201.213V205.79C183.96 206.011 183.918 206.222 183.845 206.422L183.834 206.443H234.864V130.556ZM180.403 202.981H178.625V204.012H180.403V202.981Z" fill="white"/>
<path fill-rule="evenodd" clip-rule="evenodd" d="M205.385 160.401H236.641V208.221H205.385V160.401Z" fill="#CFA88A"/>
<path fill-rule="evenodd" clip-rule="evenodd" d="M173.384 160.401H207.639V208.221H173.384V160.401Z" fill="#D3B197"/>
<path fill-rule="evenodd" clip-rule="evenodd" d="M185.085 160.401H195.936V192.499H185.085V160.401Z" fill="#E2C6AF"/>
<path d="M208.008 208.537C207.84 208.537 207.692 208.4 207.692 208.232L207.313 190.541C207.313 190.362 207.45 190.225 207.619 190.215C207.787 190.204 207.934 190.352 207.945 190.52L208.324 208.211C208.334 208.39 208.197 208.537 208.008 208.537C208.018 208.537 208.018 208.537 208.008 208.537Z" fill="#312A46"/>
<path d="M180.081 200.022L175.994 203.452L178.943 206.967L183.03 203.537L180.081 200.022Z" fill="white"/>
<path fill-rule="evenodd" clip-rule="evenodd" d="M213.991 128.778H236.639V160.402H213.991V128.778Z" fill="#CFA88A"/>
<path fill-rule="evenodd" clip-rule="evenodd" d="M194.724 128.778H217.371V160.402H194.724V128.778Z" fill="#D3B197"/>
<path fill-rule="evenodd" clip-rule="evenodd" d="M202.489 128.778H209.688V150.015H202.489V128.778Z" fill="#E2C6AF"/>
<path d="M216.52 160.718C216.351 160.718 216.204 160.581 216.204 160.402L216.109 148.71C216.109 148.531 216.246 148.395 216.425 148.395C216.593 148.395 216.741 148.531 216.741 148.71L216.835 160.402C216.846 160.581 216.699 160.718 216.52 160.718C216.53 160.718 216.53 160.718 216.52 160.718Z" fill="#312A46"/>
<path d="M201.159 157.316L198.434 155.029L196.506 157.327L199.231 159.613L201.159 157.316Z" fill="white"/>
</svg>
