<svg width="17" height="20" viewBox="0 0 17 20" fill="none" xmlns="http://www.w3.org/2000/svg">
<path d="M14.6666 10.4166V5.66663C14.6666 4.26649 14.6666 3.56643 14.3941 3.03165C14.1544 2.56124 13.772 2.17879 13.3016 1.93911C12.7668 1.66663 12.0667 1.66663 10.6666 1.66663H5.33325C3.93312 1.66663 3.23306 1.66663 2.69828 1.93911C2.22787 2.17879 1.84542 2.56124 1.60574 3.03165C1.33325 3.56643 1.33325 4.26649 1.33325 5.66663V14.3333C1.33325 15.7334 1.33325 16.4335 1.60574 16.9683C1.84542 17.4387 2.22787 17.8211 2.69828 18.0608C3.23306 18.3333 3.93312 18.3333 5.33325 18.3333H7.99992M9.66659 9.16662H4.66659M6.33325 12.5H4.66659M11.3333 5.83329H4.66659M10.0833 15.8333L11.7499 17.5L15.4999 13.75" stroke="#5340FF" stroke-width="1.66667" stroke-linecap="round" stroke-linejoin="round"/>
</svg>
