<svg width="15" height="15" viewBox="0 0 15 15" fill="none" xmlns="http://www.w3.org/2000/svg">
<path d="M4.58685 5.90211C5.05085 6.86853 5.68337 7.77429 6.48443 8.57534C7.28548 9.37639 8.19124 10.0089 9.15765 10.4729C9.24078 10.5128 9.28234 10.5328 9.33494 10.5481C9.52184 10.6026 9.75135 10.5635 9.90963 10.4501C9.95417 10.4182 9.99228 10.3801 10.0685 10.3039C10.3016 10.0708 10.4181 9.95431 10.5353 9.87812C10.9772 9.59079 11.5469 9.59079 11.9889 9.87812C12.106 9.95431 12.2226 10.0708 12.4556 10.3039L12.5856 10.4338C12.9398 10.7881 13.117 10.9653 13.2132 11.1555C13.4046 11.5339 13.4046 11.9807 13.2132 12.3591C13.117 12.5494 12.9399 12.7265 12.5856 13.0808L12.4805 13.1859C12.1274 13.539 11.9508 13.7155 11.7108 13.8504C11.4445 14 11.0308 14.1075 10.7253 14.1066C10.45 14.1058 10.2619 14.0524 9.8856 13.9456C7.86333 13.3716 5.95509 12.2886 4.36311 10.6967C2.77112 9.10467 1.68814 7.19643 1.11416 5.17417C1.00735 4.79787 0.953949 4.60972 0.953131 4.33442C0.952222 4.02894 1.0598 3.61528 1.20941 3.34894C1.34424 3.10892 1.52078 2.93238 1.87386 2.5793L1.97895 2.47421C2.33325 2.11992 2.5104 1.94277 2.70065 1.84654C3.07903 1.65516 3.52587 1.65516 3.90424 1.84654C4.0945 1.94277 4.27164 2.11991 4.62594 2.47421L4.75585 2.60412C4.98892 2.83719 5.10546 2.95373 5.18165 3.07091C5.46898 3.51284 5.46898 4.08256 5.18165 4.52449C5.10546 4.64167 4.98892 4.75821 4.75585 4.99128C4.67964 5.06749 4.64154 5.10559 4.60965 5.15013C4.4963 5.30842 4.45717 5.53793 4.51165 5.72483C4.52698 5.77742 4.54694 5.81899 4.58685 5.90211Z" stroke="#627193" stroke-width="1.66667" stroke-linecap="round" stroke-linejoin="round"/>
</svg>
