<svg width="17" height="20" viewBox="0 0 17 20" fill="none" xmlns="http://www.w3.org/2000/svg">
<path d="M8.45312 10C9.00313 10 9.47396 9.80417 9.86563 9.4125C10.2573 9.02083 10.4531 8.55 10.4531 8C10.4531 7.45 10.2573 6.97917 9.86563 6.5875C9.47396 6.19583 9.00313 6 8.45312 6C7.90312 6 7.43229 6.19583 7.04063 6.5875C6.64896 6.97917 6.45312 7.45 6.45312 8C6.45312 8.55 6.64896 9.02083 7.04063 9.4125C7.43229 9.80417 7.90312 10 8.45312 10ZM8.45312 17.35C10.4865 15.4833 11.9948 13.7875 12.9781 12.2625C13.9615 10.7375 14.4531 9.38333 14.4531 8.2C14.4531 6.38333 13.874 4.89583 12.7156 3.7375C11.5573 2.57917 10.1365 2 8.45312 2C6.76979 2 5.34896 2.57917 4.19062 3.7375C3.03229 4.89583 2.45312 6.38333 2.45312 8.2C2.45312 9.38333 2.94479 10.7375 3.92813 12.2625C4.91146 13.7875 6.41979 15.4833 8.45312 17.35ZM8.45312 20C5.76979 17.7167 3.76562 15.5958 2.44063 13.6375C1.11563 11.6792 0.453125 9.86667 0.453125 8.2C0.453125 5.7 1.25729 3.70833 2.86563 2.225C4.47396 0.741667 6.33646 0 8.45312 0C10.5698 0 12.4323 0.741667 14.0406 2.225C15.649 3.70833 16.4531 5.7 16.4531 8.2C16.4531 9.86667 15.7906 11.6792 14.4656 13.6375C13.1406 15.5958 11.1365 17.7167 8.45312 20Z" fill="#1C1B1F"/>
</svg>
