<svg width="178" height="34" viewBox="0 0 178 34" fill="none" xmlns="http://www.w3.org/2000/svg">
<path d="M52.873 27.1114V11.1027H56.3573L62.1958 20.5902H59.7003L65.5858 11.1027H68.9288V27.1114H65.1621V22.1204C65.1621 20.755 65.1856 19.5072 65.2562 18.4243C65.3269 17.3178 65.4446 16.2349 65.6094 15.1519L66.0331 16.329L61.6072 23.2034H60.1005L55.7687 16.3761L56.1925 15.1519C56.3573 16.1642 56.475 17.2236 56.5456 18.283C56.6163 19.366 56.6398 20.6373 56.6398 22.1204V27.1114H52.873Z" fill="#2C1BB7"/>
<path d="M81.3828 27.3233C80.1586 27.3233 79.0521 27.1115 78.0398 26.7112C77.0275 26.311 76.1564 25.7225 75.403 24.9691C74.6497 24.2158 74.0847 23.3447 73.6609 22.3324C73.2607 21.3201 73.0488 20.2136 73.0488 19.0129C73.0488 17.8123 73.2607 16.7058 73.6609 15.6935C74.0611 14.6812 74.6497 13.8101 75.403 13.0567C76.1564 12.3034 77.0275 11.7384 78.0398 11.3146C79.0521 10.9144 80.1586 10.7025 81.3592 10.7025C82.5599 10.7025 83.6664 10.9144 84.6787 11.3146C85.691 11.7148 86.5621 12.3034 87.3154 13.0567C88.0688 13.8101 88.6338 14.6812 89.034 15.6935C89.4342 16.7058 89.6461 17.8123 89.6461 19.0129C89.6461 20.2136 89.4342 21.2965 89.034 22.3088C88.6338 23.3212 88.0452 24.1922 87.3154 24.9456C86.5621 25.6989 85.691 26.2639 84.6787 26.6877C83.6664 27.0879 82.5834 27.2998 81.3828 27.2998V27.3233ZM81.3828 23.6743C82.0184 23.6743 82.5834 23.5566 83.1013 23.3212C83.6193 23.0857 84.0901 22.7797 84.4668 22.3559C84.867 21.9322 85.1495 21.4378 85.3614 20.8728C85.5733 20.3077 85.691 19.6956 85.691 19.0129C85.691 18.3302 85.5733 17.7181 85.3614 17.1531C85.1495 16.5881 84.8435 16.0937 84.4668 15.6699C84.0901 15.2462 83.6193 14.9166 83.1013 14.7047C82.5834 14.4693 81.9949 14.3516 81.3828 14.3516C80.7707 14.3516 80.1821 14.4693 79.6642 14.7047C79.1463 14.9401 78.6754 15.2462 78.2752 15.6699C77.875 16.0937 77.5689 16.5881 77.3806 17.1531C77.1687 17.7181 77.0745 18.3302 77.0745 19.0129C77.0745 19.6956 77.1687 20.3077 77.3806 20.8728C77.5925 21.4378 77.875 21.9322 78.2752 22.3559C78.6754 22.7561 79.1227 23.0857 79.6642 23.3212C80.1821 23.5566 80.7707 23.6743 81.3828 23.6743Z" fill="#2C1BB7"/>
<path d="M97.5798 27.1114L91.1763 11.1027H95.2255L98.3096 19.2718C98.4979 19.7427 98.6391 20.1664 98.7804 20.496C98.9217 20.8491 99.0158 21.1787 99.1335 21.4848C99.2277 21.7908 99.3219 22.0969 99.416 22.4029C99.5102 22.709 99.6044 23.0621 99.6985 23.4623H98.9923C99.11 22.9444 99.2277 22.4736 99.369 22.0733C99.4867 21.6731 99.6279 21.2494 99.7692 20.8256C99.9104 20.4018 100.122 19.8604 100.334 19.2718L103.301 11.1027H107.279L100.829 27.1114H97.5798Z" fill="#2C1BB7"/>
<path d="M110.528 27.1114V11.1027H121.687V14.4221H114.295V23.7919H121.899V27.1114H110.528ZM112.364 20.5431V17.3884H120.651V20.5431H112.364Z" fill="#2C1BB7"/>
<path d="M126.396 27.1114V11.1027H133.082C134.259 11.1027 135.318 11.291 136.307 11.6912C137.272 12.0679 138.12 12.6329 138.826 13.3392C139.532 14.0454 140.074 14.893 140.45 15.8817C140.827 16.847 141.015 17.9299 141.015 19.107C141.015 20.2841 140.827 21.3671 140.45 22.3323C140.074 23.3211 139.532 24.1686 138.826 24.8749C138.12 25.5811 137.272 26.1226 136.307 26.5228C135.342 26.923 134.259 27.1114 133.082 27.1114H126.396ZM130.28 24.4511L129.762 23.6742H132.987C133.623 23.6742 134.188 23.5565 134.706 23.3446C135.2 23.1327 135.648 22.8267 136.001 22.4265C136.354 22.0263 136.636 21.5554 136.825 20.9904C137.013 20.4254 137.131 19.8133 137.131 19.107C137.131 18.4008 137.037 17.7887 136.825 17.2236C136.636 16.6586 136.354 16.1878 136.001 15.7876C135.648 15.3873 135.2 15.0813 134.706 14.8694C134.212 14.6575 133.623 14.5398 132.987 14.5398H129.691L130.28 13.81V24.4511Z" fill="#2C1BB7"/>
<path d="M144.452 27.1114V24.8278H147.042V13.3863H144.452V11.1027H152.08V13.3863H149.49V24.8042H152.08V27.0878H144.452V27.1114Z" fill="#5340FF"/>
<path d="M157.094 27.1114V11.1027H159.307L169.077 24.1921L168.701 24.404C168.63 24.0273 168.583 23.6036 168.536 23.1563C168.489 22.709 168.442 22.2381 168.418 21.7202C168.371 21.2023 168.348 20.6608 168.324 20.0958C168.324 19.5308 168.277 18.9187 168.277 18.3066C168.277 17.6709 168.277 17.0353 168.277 16.3526V11.1027H170.749V27.1114H168.489L158.86 14.4927L159.119 14.1632C159.19 15.0813 159.26 15.8817 159.307 16.5174C159.354 17.1766 159.401 17.718 159.449 18.1653C159.496 18.6126 159.519 18.9893 159.519 19.2718C159.519 19.5543 159.543 19.7897 159.543 19.9781C159.543 20.1664 159.543 20.3312 159.543 20.4489V27.1114H157.071H157.094Z" fill="#5340FF"/>
<path d="M41.2666 10.8673L40.2308 10.4906L30.0605 6.37072C29.7309 6.32364 29.6838 6.60614 29.6838 6.84157V8.23056C29.6603 8.46598 29.8016 8.53661 30.0605 8.63077L39.9012 12.5152C40.3249 12.7036 40.2543 13.0803 40.2543 13.3157L40.1601 23.7684C40.1601 24.0039 39.9718 24.1686 39.7599 24.1686H26.5292V20.1665C26.5292 18.9187 25.5169 17.93 24.2927 17.93H24.1985C22.9508 17.93 21.962 18.9423 21.962 20.1665V23.8155C21.962 24.0039 21.8208 24.1451 21.6324 24.1451H13.6045C13.4162 24.1451 13.2749 24.0039 13.2749 23.8155V16.2585C13.2749 16.0466 13.3456 15.8582 13.4868 15.6934L20.9968 4.88756C21.2793 4.55797 21.0439 4.04004 20.5966 4.04004H11.627C11.1091 4.04004 10.6147 4.25192 10.2615 4.60505L1.22133 15.8112C1.22133 15.8112 1.08008 16.0466 1.08008 16.1643V25.6754C1.08008 25.9579 1.3155 26.1933 1.598 26.1933H2.2101C2.30427 28.2885 4.02285 29.96 6.14165 29.96C8.26045 29.96 9.97903 28.2885 10.0732 26.1933H13.9106C14.0047 28.2885 15.7469 29.96 17.8657 29.96C19.9845 29.96 21.7266 28.2885 21.8208 26.1933H24.2456C24.5046 27.6764 25.8229 28.8065 27.3767 28.8065C28.9305 28.8065 30.2489 27.6764 30.5078 26.1933H32.815C32.9091 28.2885 34.6512 29.96 36.77 29.96C38.8888 29.96 40.631 28.2885 40.7251 26.1933H41.2666C41.7845 26.1933 42.2083 25.7695 42.2083 25.2516V24.1451L42.3025 12.8684V12.0209C42.3025 11.4558 41.8787 11.0321 41.2666 10.8437V10.8673ZM7.48355 27.4175C6.7302 28.1708 5.52955 28.1708 4.7762 27.4175C4.44661 27.0879 4.25828 26.6641 4.23473 26.2404H8.04857C8.00149 26.6641 7.83669 27.0879 7.5071 27.4175H7.48355ZM16.5002 27.4175C16.1706 27.0879 16.0058 26.6641 15.9587 26.2404H19.7726C19.7255 26.6641 19.5607 27.0879 19.2311 27.4175C18.4778 28.1708 17.2536 28.1708 16.5002 27.4175ZM28.4597 26.7818C27.8476 27.3939 26.8823 27.3939 26.2702 26.7818C26.1054 26.617 26.0113 26.4522 25.9406 26.2639H28.7892C28.7186 26.4522 28.6245 26.6406 28.4597 26.7818ZM38.1355 27.4175C37.3821 28.1708 36.158 28.1708 35.4046 27.4175C35.075 27.0879 34.9102 26.6641 34.8631 26.2404H38.677C38.6299 26.6641 38.4651 27.0879 38.1355 27.4175Z" fill="#5340FF"/>
<path d="M175.128 27.3233C176.116 27.3233 176.917 26.5222 176.917 25.5341C176.917 24.5459 176.116 23.7449 175.128 23.7449C174.139 23.7449 173.338 24.5459 173.338 25.5341C173.338 26.5222 174.139 27.3233 175.128 27.3233Z" fill="#FFD100"/>
<path d="M2.4899 17.4562C1.82591 17.4562 1.3042 18.133 1.3042 18.957C1.3042 19.781 1.84962 20.4578 2.4899 20.4578C3.13018 20.4578 3.69932 19.781 3.69932 18.957C3.69932 18.133 3.15389 17.4562 2.4899 17.4562Z" fill="#FFD100"/>
<path d="M8.48941 17.4562C7.82542 17.4562 7.30371 18.133 7.30371 18.957C7.30371 19.781 7.84913 20.4578 8.48941 20.4578C9.12969 20.4578 9.69883 19.781 9.69883 18.957C9.69883 18.133 9.1534 17.4562 8.48941 17.4562Z" fill="#FFD100"/>
</svg>
